<?xml version="1.0" standalone="yes"?>
<svg xmlns="http://www.w3.org/2000/svg" width="355" height="200">
<path style="fill:#000000; stroke:none;" d="M0 0L0 200L355 200L355 0L0 0z"/>
<path style="fill:#646464; stroke:none;" d="M162 65C166.974 67.0872 173.638 66 179 66C174.026 63.9128 167.362 65 162 65z"/>
<path style="fill:#2f2f2f; stroke:none;" d="M147 66L148 67L147 66z"/>
<path style="fill:#9b9b9b; stroke:none;" d="M148 66C149.248 66.6848 149.548 66.7488 151 67C149.752 66.3152 149.452 66.2512 148 66z"/>
<path style="fill:#ffffff; stroke:none;" d="M141 67C139.044 73.4426 131.541 72.4787 126 74.2886C118.859 76.6213 111.257 79.3695 105.001 83.598C101.192 86.1726 98.6442 90.7567 94.7909 92.973C92.0051 94.5753 88.0885 93.9997 85 94C88.3457 103.09 94.5424 102 103 102C104.139 89.052 116.201 84.4706 127 80.5864C151.014 71.9485 181.57 71.9146 206 78.9097C214.464 81.3333 224.26 84.5382 230.38 91.1852C233.088 94.1255 235.516 97.784 234.566 101.961C232.629 110.467 220.44 115.912 213 118.144C193.041 124.129 173.712 125.362 153 123.91C144.552 123.318 130.315 117.088 125 126C134.038 127.167 142.969 129.279 152 130.572C155.548 131.08 159.439 130.429 162.896 131.313C165.613 132.008 167.273 134.389 170.104 134.853C175.942 135.809 182.194 134.732 188 134.17C197.339 133.266 206.902 133.01 216 130.441C226.671 127.429 237.58 124.565 247 118.461C250.582 116.14 253.698 113.475 256.211 109.999C257.834 107.756 258.973 104.562 261.39 103.028C265.227 100.591 272.607 102 277 102L277 98C272.627 98 266.281 99.1636 262.213 97.3966C257.942 95.5412 255.806 88.884 252.245 85.7855C245.306 79.7471 236.645 76.1752 228 73.358C199.254 63.9905 170.524 66.9805 141 67z"/>
<path style="fill:#959595; stroke:none;" d="M190 66C191.506 66.683 192.315 66.8259 194 67C192.494 66.317 191.685 66.1741 190 66z"/>
<path style="fill:#c6c7c9; stroke:none;" d="M140 67L141 68L140 67z"/>
<path style="fill:#aaaaaa; stroke:none;" d="M201 67L202 68L201 67z"/>
<path style="fill:#7b7f80; stroke:none;" d="M140 68L141 69L140 68z"/>
<path style="fill:#d3d3d3; stroke:none;" d="M207 68L208 69L207 68z"/>
<path style="fill:#7a7a77; stroke:none;" d="M208 68L209 69L208 68z"/>
<path style="fill:#474744; stroke:none;" d="M209 68L210 69L209 68z"/>
<path style="fill:#b6b6b4; stroke:none;" d="M213 69L214 70L213 69z"/>
<path style="fill:#787876; stroke:none;" d="M214 69L215 70L214 69z"/>
<path style="fill:#676765; stroke:none;" d="M216 70L217 71L216 70z"/>
<path style="fill:#37383a; stroke:none;" d="M138 71L139 72L138 71z"/>
<path style="fill:#98999b; stroke:none;" d="M139 71L140 72L139 71z"/>
<path style="fill:#cdcdcb; stroke:none;" d="M220 71L221 72L220 71z"/>
<path style="fill:#6a6d6b; stroke:none;" d="M133 72L134 73L133 72z"/>
<path style="fill:#393937; stroke:none;" d="M225 72L226 73L225 72z"/>
<path style="fill:#444a48; stroke:none;" d="M128 73L129 74L128 73z"/>
<path style="fill:#bebebc; stroke:none;" d="M228 73L229 74L228 73z"/>
<path style="fill:#37383a; stroke:none;" d="M124 74L125 75L124 74z"/>
<path style="fill:#616161; stroke:none;" d="M161 74C165.471 75.8763 171.183 75 176 75C171.529 73.1237 165.817 74 161 74z"/>
<path style="fill:#b2b2b2; stroke:none;" d="M176 74L177 75L176 74z"/>
<path style="fill:#a1a19f; stroke:none;" d="M231 74L232 75L231 74z"/>
<path style="fill:#babbbe; stroke:none;" d="M123 75L124 76L123 75z"/>
<path style="fill:#cacaca; stroke:none;" d="M152 75L153 76L152 75z"/>
<path style="fill:#9d9d9d; stroke:none;" d="M153 75C154.248 75.6848 154.548 75.7488 156 76C154.752 75.3152 154.452 75.2512 153 75z"/>
<path style="fill:#a3a3a3; stroke:none;" d="M182 75C183.506 75.683 184.315 75.8259 186 76C184.494 75.317 183.685 75.1741 182 75z"/>
<path style="fill:#939290; stroke:none;" d="M233 75L234 76L233 75z"/>
<path style="fill:#6d6d6d; stroke:none;" d="M144.667 76.3333C144.222 76.7777 145.278 76.7222 145.333 76.6667C145.778 76.2222 144.722 76.2778 144.667 76.3333z"/>
<path style="fill:#4d4d4d; stroke:none;" d="M191.667 76.3333C191.222 76.7777 192.278 76.7223 192.333 76.6667C192.778 76.2222 191.722 76.2778 191.667 76.3333z"/>
<path style="fill:#909090; stroke:none;" d="M193 76L194 77L193 76z"/>
<path style="fill:#38393b; stroke:none;" d="M116 77L117 78L116 77z"/>
<path style="fill:#b5b6b8; stroke:none;" d="M117 77L118 78L117 77z"/>
<path style="fill:#b9b9b9; stroke:none;" d="M138 77L139 78L138 77z"/>
<path style="fill:#2c2c2d; stroke:none;" d="M139 77L140 78L139 77z"/>
<path style="fill:#252525; stroke:none;" d="M197.667 77.3333C197.222 77.7777 198.278 77.7222 198.333 77.6667C198.778 77.2222 197.722 77.2778 197.667 77.3333z"/>
<path style="fill:#dddddd; stroke:none;" d="M199.667 77.3333C199.222 77.7777 200.278 77.7223 200.333 77.6667C200.778 77.2222 199.722 77.2778 199.667 77.3333z"/>
<path style="fill:#a1a2a6; stroke:none;" d="M114 78L115 79L114 78z"/>
<path style="fill:#989795; stroke:none;" d="M133 78L134 79L133 78z"/>
<path style="fill:#939393; stroke:none;" d="M204 78L205 79L204 78z"/>
<path style="fill:#545559; stroke:none;" d="M111 79L112 80L111 79z"/>
<path style="fill:#cecfd3; stroke:none;" d="M112 79L113 80L112 79z"/>
<path style="fill:#5d5d5b; stroke:none;" d="M129 79L130 80L129 79z"/>
<path style="fill:#565656; stroke:none;" d="M208 79L209 80L208 79z"/>
<path style="fill:#5e5f5a; stroke:none;" d="M243 79L244 80L243 79z"/>
<path style="fill:#35383e; stroke:none;" d="M110 80L111 81L110 80z"/>
<path style="fill:#a4a3a1; stroke:none;" d="M127 80L128 81L127 80z"/>
<path style="fill:#929398; stroke:none;" d="M210 80L211 81L210 80z"/>
<path style="fill:#504f49; stroke:none;" d="M244 80L245 81L244 80z"/>
<path style="fill:#393836; stroke:none;" d="M124 81L125 82L124 81z"/>
<path style="fill:#2a2b2f; stroke:none;" d="M213 81L214 82L213 81z"/>
<path style="fill:#525355; stroke:none;" d="M106 82L107 83L106 82z"/>
<path style="fill:#6c6d6f; stroke:none;" d="M216 82L217 83L216 82z"/>
<path style="fill:#b6b5b1; stroke:none;" d="M247 82L248 83L247 82z"/>
<path style="fill:#979694; stroke:none;" d="M118 83L119 84L118 83z"/>
<path style="fill:#858688; stroke:none;" d="M219 83L220 84L219 83z"/>
<path style="fill:#a5a4a0; stroke:none;" d="M249 83L250 84L249 83z"/>
<path style="fill:#58595d; stroke:none;" d="M103 84L104 85L103 84z"/>
<path style="fill:#575759; stroke:none;" d="M221 84L222 85L221 84z"/>
<path style="fill:#808082; stroke:none;" d="M222 85L223 86L222 85z"/>
<path style="fill:#8f8e8a; stroke:none;" d="M251 85L252 86L251 85z"/>
<path style="fill:#292d30; stroke:none;" d="M101 86L102 87L101 86z"/>
<path style="fill:#454440; stroke:none;" d="M113 86L114 87L113 86z"/>
<path style="fill:#bdc2c2; stroke:none;" d="M226 87L227 88L226 87z"/>
<path style="fill:#86837e; stroke:none;" d="M108 89L109 90L108 89z"/>
<path style="fill:#54585b; stroke:none;" d="M229 89L230 90L229 89z"/>
<path style="fill:#86817e; stroke:none;" d="M256 90L257 91L256 90z"/>
<path style="fill:#75716e; stroke:none;" d="M106 91L107 92L106 91z"/>
<path style="fill:#7a7f82; stroke:none;" d="M96 92L97 93L96 92z"/>
<path style="fill:#c8c6c0; stroke:none;" d="M105 92L106 93L105 92z"/>
<path style="fill:#a6a7a8; stroke:none;" d="M95 93L96 94L95 93z"/>
<path style="fill:#484540; stroke:none;" d="M258 93L259 94L258 93z"/>
<path style="fill:#333335; stroke:none;" d="M84 94L85 95L84 94z"/>
<path style="fill:#5e5750; stroke:none;" d="M104 94L105 95L104 94z"/>
<path style="fill:#949695; stroke:none;" d="M164.667 94.3333C164.222 94.7777 165.278 94.7223 165.333 94.6667C165.778 94.2222 164.722 94.2778 164.667 94.3333z"/>
<path style="fill:#fefefe; stroke:none;" d="M195 102L195 99C184.712 98.9921 175.316 92.2405 165 94.75C162.246 95.42 156.456 96.6048 155.921 100.085C155.316 104.024 162.273 105.812 165 106.37C175.544 108.526 184.545 102.001 195 102z"/>
<path style="fill:#9c9e9d; stroke:none;" d="M174.667 94.3333C174.222 94.7777 175.278 94.7223 175.333 94.6667C175.778 94.2222 174.722 94.2778 174.667 94.3333z"/>
<path style="fill:#3a3732; stroke:none;" d="M259 94L260 95L259 94z"/>
<path style="fill:#696c6b; stroke:none;" d="M161.667 95.3333C161.222 95.7777 162.278 95.7222 162.333 95.6667C162.778 95.2222 161.722 95.2778 161.667 95.3333z"/>
<path style="fill:#656364; stroke:none;" d="M178 95L179 96L178 95z"/>
<path style="fill:#807f7a; stroke:none;" d="M259 95L260 96L259 95z"/>
<path style="fill:#626368; stroke:none;" d="M85 96L86 97L85 96z"/>
<path style="fill:#92918f; stroke:none;" d="M181 96L182 97L181 96z"/>
<path style="fill:#7b7e84; stroke:none;" d="M234 96L235 97L234 96z"/>
<path style="fill:#b7b3b2; stroke:none;" d="M103 97L104 98L103 97z"/>
<path style="fill:#d0d4d7; stroke:none;" d="M157 97L158 98L157 97z"/>
<path style="fill:#5d5857; stroke:none;" d="M103 98L104 99L103 98z"/>
<path style="fill:#292e31; stroke:none;" d="M155 98L156 99L155 98z"/>
<path style="fill:#45403f; stroke:none;" d="M103.333 99.6667C103.278 99.7222 103.222 100.778 103.667 100.333C103.722 100.278 103.778 99.2222 103.333 99.6667z"/>
<path style="fill:#1e1e1e; stroke:none;" d="M195 99L195 102C195.696 100.446 195.696 100.554 195 99z"/>
<path style="fill:#303538; stroke:none;" d="M88 101L89 102L88 101z"/>
<path style="fill:#8d8988; stroke:none;" d="M103 101L104 102L103 101z"/>
<path style="fill:#a9a8a6; stroke:none;" d="M184 102L185 103L184 102z"/>
<path style="fill:#393e42; stroke:none;" d="M234 102L235 103L234 102z"/>
<path style="fill:#88898b; stroke:none;" d="M157 103L158 104L157 103z"/>
<path style="fill:#676661; stroke:none;" d="M183 103L184 104L183 103z"/>
<path style="fill:#ced4d8; stroke:none;" d="M234 103L235 104L234 103z"/>
<path style="fill:#b3b5b7; stroke:none;" d="M159 104L160 105L159 104z"/>
<path style="fill:#94938e; stroke:none;" d="M259 104L260 105L259 104z"/>
<path style="fill:#727375; stroke:none;" d="M160 105L161 106L160 105z"/>
<path style="fill:#aaaba6; stroke:none;" d="M179 105L180 106L179 105z"/>
<path style="fill:#5e6468; stroke:none;" d="M233 105L234 106L233 105z"/>
<path style="fill:#302f29; stroke:none;" d="M259 105L260 106L259 105z"/>
<path style="fill:#474948; stroke:none;" d="M164.667 106.333C164.222 106.778 165.278 106.722 165.333 106.667C165.778 106.222 164.722 106.278 164.667 106.333z"/>
<path style="fill:#737270; stroke:none;" d="M174.667 106.333C174.222 106.778 175.278 106.722 175.333 106.667C175.778 106.222 174.722 106.278 174.667 106.333z"/>
<path style="fill:#5c5755; stroke:none;" d="M258 106L259 107L258 106z"/>
<path style="fill:#838788; stroke:none;" d="M231 107L232 108L231 107z"/>
<path style="fill:#555a5b; stroke:none;" d="M230 108L231 109L230 108z"/>
<path style="fill:#757678; stroke:none;" d="M229 109L230 110L229 109z"/>
<path style="fill:#c2bfb9; stroke:none;" d="M256 109L257 110L256 109z"/>
<path style="fill:#676661; stroke:none;" d="M255 111L256 112L255 111z"/>
<path style="fill:#737778; stroke:none;" d="M225 112L226 113L225 112z"/>
<path style="fill:#898481; stroke:none;" d="M254 112L255 113L254 112z"/>
<path style="fill:#57585a; stroke:none;" d="M221 114L222 115L221 114z"/>
<path style="fill:#6a6b6d; stroke:none;" d="M220 115L221 116L220 115z"/>
<path style="fill:#97989a; stroke:none;" d="M218 116L219 117L218 116z"/>
<path style="fill:#aaabad; stroke:none;" d="M215 117L216 118L215 117z"/>
<path style="fill:#63625e; stroke:none;" d="M246 118L247 119L246 118z"/>
<path style="fill:#414647; stroke:none;" d="M208 119L209 120L208 119z"/>
<path style="fill:#656968; stroke:none;" d="M130 120C131.248 120.685 131.548 120.749 133 121C131.752 120.315 131.452 120.251 130 120z"/>
<path style="fill:#696a6f; stroke:none;" d="M206 120L207 121L206 120z"/>
<path style="fill:#737371; stroke:none;" d="M136 121L137 122L136 121z"/>
<path style="fill:#7f8180; stroke:none;" d="M201 121L202 122L201 121z"/>
<path style="fill:#b6b7ba; stroke:none;" d="M202 121L203 122L202 121z"/>
<path style="fill:#928f89; stroke:none;" d="M241 121L242 122L241 121z"/>
<path style="fill:#e7e7e5; stroke:none;" d="M140.667 122.333C140.222 122.778 141.278 122.722 141.333 122.667C141.778 122.222 140.722 122.278 140.667 122.333z"/>
<path style="fill:#2b2b2b; stroke:none;" d="M142.667 122.333C142.222 122.778 143.278 122.722 143.333 122.667C143.778 122.222 142.722 122.278 142.667 122.333z"/>
<path style="fill:#dfdfdf; stroke:none;" d="M196.667 122.333C196.222 122.778 197.278 122.722 197.333 122.667C197.778 122.222 196.722 122.278 196.667 122.333z"/>
<path style="fill:#9d9c9b; stroke:none;" d="M239 122L240 123L239 122z"/>
<path style="fill:#bebdc3; stroke:none;" d="M126 123L127 124L126 123z"/>
<path style="fill:#717171; stroke:none;" d="M149.667 123.333C149.222 123.778 150.278 123.722 150.333 123.667C150.778 123.222 149.722 123.278 149.667 123.333z"/>
<path style="fill:#333333; stroke:none;" d="M151 123L152 124L151 123z"/>
<path style="fill:#626265; stroke:none;" d="M186 123C187.248 123.685 187.548 123.749 189 124C187.752 123.315 187.452 123.251 186 123z"/>
<path style="fill:#d4d4d7; stroke:none;" d="M189 123L190 124L189 123z"/>
<path style="fill:#9a9a9a; stroke:none;" d="M161 124C165.724 125.982 171.91 125 177 125C172.276 123.018 166.09 124 161 124z"/>
<path style="fill:#7a7978; stroke:none;" d="M234 124L235 125L234 124z"/>
<path style="fill:#b1b2ad; stroke:none;" d="M232 125L233 126L232 125z"/>
<path style="fill:#3a3b36; stroke:none;" d="M233 125L234 126L233 125z"/>
<path style="fill:#5c6063; stroke:none;" d="M128 126L129 127L128 126z"/>
<path style="fill:#666669; stroke:none;" d="M133 127L134 128L133 127z"/>
<path style="fill:#5e5d5b; stroke:none;" d="M226 127L227 128L226 127z"/>
<path style="fill:#636363; stroke:none;" d="M138 128L139 129L138 128z"/>
<path style="fill:#9c9c9c; stroke:none;" d="M139 128L140 129L139 128z"/>
<path style="fill:#8c8c8a; stroke:none;" d="M222 128L223 129L222 128z"/>
<path style="fill:#3a3a39; stroke:none;" d="M223 128L224 129L223 128z"/>
<path style="fill:#5a5a5a; stroke:none;" d="M144.667 129.333C144.222 129.778 145.278 129.722 145.333 129.667C145.778 129.222 144.722 129.278 144.667 129.333z"/>
<path style="fill:#a3a3a1; stroke:none;" d="M218 129L219 130L218 129z"/>
<path style="fill:#31312f; stroke:none;" d="M219 129L220 130L219 129z"/>
<path style="fill:#a3a3a3; stroke:none;" d="M149 130C150.248 130.685 150.548 130.749 152 131C150.752 130.315 150.452 130.251 149 130z"/>
<path style="fill:#878785; stroke:none;" d="M216 130L217 131L216 130z"/>
<path style="fill:#636768; stroke:none;" d="M161 131C162.769 131.779 164.036 131.912 166 132C164.231 131.221 162.964 131.088 161 131z"/>
<path style="fill:#5e5e5c; stroke:none;" d="M211 131L212 132L211 131z"/>
<path style="fill:#636363; stroke:none;" d="M205 132L206 133L205 132z"/>
<path style="fill:#b9bdbe; stroke:none;" d="M166 133L167 134L166 133z"/>
<path style="fill:#9c9c9a; stroke:none;" d="M196 133C197.248 133.685 197.548 133.749 199 134C197.752 133.315 197.452 133.251 196 133z"/>
<path style="fill:#4e5253; stroke:none;" d="M166 134L167 135L166 134z"/>
<path style="fill:#b0b0b0; stroke:none;" d="M185 134L186 135L185 134z"/>
<path style="fill:#5e5e5e; stroke:none;" d="M186 134C187.506 134.683 188.315 134.826 190 135C188.494 134.317 187.685 134.174 186 134z"/>
<path style="fill:#9c9c9c; stroke:none;" d="M167 135C170.697 136.552 175.017 136 179 136C175.303 134.448 170.983 135 167 135z"/>
</svg>
