<?xml version="1.0" standalone="yes"?>
<svg xmlns="http://www.w3.org/2000/svg" width="315" height="160">
<path style="fill:#141414; stroke:none;" d="M0 0L0 160L315 160L315 0L112 0C117.462 2.29214 125.113 1 131 1L172 1L314 1L314 159L1 159L1 1L110 1C106.301 -0.552017 101.983 0 98 0L77 0L0 0z"/>
<path style="fill:#000000; stroke:none;" d="M1 1L1 3L96 3C88.5655 5.19753 79.7224 4 72 4L26 4C18.8692 4 10.868 2.96992 4 5C11.6394 8.20561 23.7293 6 32 6L96 6C86.8774 8.69649 75.4888 7 66 7L7 7C9.1245 15.9235 8 25.8661 8 35C8 44.4415 9.19566 54.7776 7 64C5.13824 57.7014 6 50.5369 6 44L6 7C3.81106 12.2165 5 19.3809 5 25C5 38.1013 6.39646 52.0916 4 65C8.54459 65 16.7099 66.5803 20.3657 63.3966C22.818 61.261 24.2507 57.6154 26.159 55C29.2981 50.6975 32.9537 46.7647 37 43.3002C48.2687 33.6516 62.0209 27.0101 76 22.3333C80.1864 20.9328 89.224 19.9292 91.9722 16.2971C93.4312 14.3689 92.992 11.2602 93 9C109.059 7.73262 124.864 4.74489 141 4.03935C146.095 3.81656 150.95 4.73952 156 4.96065C182.384 6.11598 210.002 10.6484 234 22.2585C248.061 29.0613 261.762 37.9058 270.779 51C273.683 55.2159 276.088 60.0943 277.56 65C278.43 67.8986 278.541 71.8696 281.314 73.686C287.862 77.9747 299.577 76 307 76L306 83C298.722 83 287.51 80.9257 281.133 85.0895C275.907 88.5022 274.267 97.849 270.899 103C264.379 112.97 254.998 121.198 245 127.564C212.587 148.203 171.593 153.967 134 151L134 145C118.23 144.323 102.274 141.454 87 137.522C79.9187 135.698 73.1974 132.238 66 131C68.8555 127.459 73.5115 121.865 78 120.542C81.4929 119.513 85.6752 121.844 89 122.714C96.0946 124.569 103.683 126.323 111 126.914C139.686 129.231 170.748 129.737 198 119.053C206.339 115.784 214.519 112.715 222 107.655C225.515 105.278 229.204 103.281 230 99C240.423 95.8138 243.683 79.2824 240.957 70C236.096 53.4527 219.004 43.6821 204 37.6042C167.744 22.9171 123.376 22.3153 86 32.909C76.1646 35.6967 67.3714 40.0984 58 44L60 48L56 46C48.0381 50.4379 41.119 56.7465 36.9923 65C35.048 68.8886 35.2864 77.4171 31.6821 79.821C26.4307 83.3234 14.1013 81.2115 8 81C14.4574 84.8681 24.6788 83 32 83C26.854 84.5211 21.3395 84 16 84C22.7319 86.8248 32.469 81.9716 38 87C31.0057 87 23.9848 86.8139 17 87.1968C14.7935 87.3177 11.4854 86.819 9.6034 88.2145C6.17246 90.7585 8 101.193 8 105C8 120.256 10.5387 138.136 7 153L314 153L314 1L1 1z"/>
<path style="fill:#010101; stroke:none;" d="M1 3L1 156L3 156L3 80C5.28099 87.7169 4 96.9824 4 105L4 154L314 154C306.361 150.794 294.271 153 286 153L224 153L7 153C8.60693 147.564 8 141.64 8 136L8 106C8 101.861 6.17983 91.8372 9.6034 88.831C11.4275 87.2293 14.743 87.618 17 87.3889C23.955 86.6829 31.0138 87 38 87C34.8685 82.3083 21.5099 85 16 85C21.146 83.4789 26.6605 84 32 84C25.286 81.1827 15.3527 82.9292 8 82C10.8245 81.3853 13.1266 81.6563 16 82C11.1095 78.0021 6.15206 72.5108 4.81867 66C3.58382 59.9703 5 52.2132 5 46L5 7C6.86176 13.2986 6 20.4631 6 27L6 64C9.08901 59.9226 8 53.9411 8 49C8 35.9965 10.6874 19.475 7 7L96 7C88.3606 3.79439 76.2707 6 68 6L4 6C11.6967 1.89253 23.4182 4 32 4L96 4C88.121 0.693848 75.5339 3 67 3L1 3z"/>
<path style="fill:#0e0e0e; stroke:none;" d="M136 4C140.724 5.98219 146.91 5 152 5C147.276 3.01781 141.09 4 136 4z"/>
<path style="fill:#303030; stroke:none;" d="M120 5C121.248 5.68481 121.548 5.74878 123 6C121.752 5.31522 121.452 5.25121 120 5z"/>
<path style="fill:#7d7d7d; stroke:none;" d="M123.667 5.33333C123.222 5.77782 124.278 5.72226 124.333 5.66667C124.778 5.22224 123.722 5.27779 123.667 5.33333z"/>
<path style="fill:#acacac; stroke:none;" d="M125 5C126.248 5.6848 126.548 5.74878 128 6C126.752 5.31523 126.452 5.25119 125 5z"/>
<path style="fill:#ffffff; stroke:none;" d="M94 18C75.7739 18.8328 52.9196 29.9199 39.0039 41.311C34.1797 45.2599 29.6396 49.9018 26.0432 55C24.0889 57.7703 22.549 62.1062 19.6103 63.9722C15.7727 66.409 8.39337 65 4 65C5.78028 69.2535 8.35071 76.4073 12.3897 78.9722C17.3313 82.1103 28.2755 80 34 80C34.0147 57.7445 54.2333 44.7678 73 37.2006C112.308 21.3505 159.202 22.2579 199 35.6674C218.257 42.156 246.764 58.649 241.481 83C238.352 97.4244 223.471 107.943 211 113.971C181.405 128.278 148.21 130.285 116 127.911C107.637 127.295 99.1427 125.275 91 123.346C87.3118 122.472 82.8299 120.024 79 120.502C73.9588 121.13 69.0317 126.733 67 131C89.6709 136.247 110.277 144 134 144L135 151C171.204 151 209.04 149.426 241 129.938C251.473 123.552 261.785 116.149 268.957 106C273.177 100.028 275.087 89.0978 281.108 85.0054C287.923 80.3732 298.217 82 306 82L306 76C298.956 76 288.311 77.9501 282.133 73.9105C276.82 70.4362 276.069 60.4453 273.215 55C268.314 45.6481 260.687 38.2136 252 32.358C221.589 11.859 182.072 5 146 5C133.269 5 120.628 5.62111 108 7.28163C104.436 7.75023 97.4377 7.52039 94.6427 10.0131C92.6488 11.7914 93.826 15.6941 94 18z"/>
<path style="fill:#ababab; stroke:none;" d="M160 5C161.248 5.68477 161.548 5.74879 163 6C161.752 5.31522 161.452 5.25121 160 5z"/>
<path style="fill:#5c5c5c; stroke:none;" d="M163.667 5.33333C163.222 5.77782 164.278 5.7222 164.333 5.66667C164.778 5.22221 163.722 5.27776 163.667 5.33333z"/>
<path style="fill:#2b2b2b; stroke:none;" d="M165 5C166.248 5.68478 166.548 5.74879 168 6C166.752 5.3152 166.452 5.25122 165 5z"/>
<path style="fill:#363636; stroke:none;" d="M110.667 6.33333C110.222 6.77783 111.278 6.72221 111.333 6.66667C111.778 6.22226 110.722 6.27774 110.667 6.33333z"/>
<path style="fill:#808080; stroke:none;" d="M112.667 6.33333C112.222 6.77783 113.278 6.72221 113.333 6.66667C113.778 6.22226 112.722 6.27774 112.667 6.33333z"/>
<path style="fill:#afafaf; stroke:none;" d="M114 6L115 7L114 6z"/>
<path style="fill:#c5c5c5; stroke:none;" d="M172 6L173 7L172 6z"/>
<path style="fill:#909090; stroke:none;" d="M173 6L174 7L173 6z"/>
<path style="fill:#454545; stroke:none;" d="M174.667 6.33333C174.222 6.77782 175.278 6.7222 175.333 6.66667C175.778 6.22223 174.722 6.27774 174.667 6.33333z"/>
<path style="fill:#595959; stroke:none;" d="M104 7L105 8L104 7z"/>
<path style="fill:#8d8d8d; stroke:none;" d="M105 7L106 8L105 7z"/>
<path style="fill:#d4d4d4; stroke:none;" d="M106 7L107 8L106 7z"/>
<path style="fill:#d2d2d2; stroke:none;" d="M180 7L181 8L180 7z"/>
<path style="fill:#939393; stroke:none;" d="M181 7L182 8L181 7z"/>
<path style="fill:#303030; stroke:none;" d="M182.667 7.33333C182.222 7.77777 183.278 7.72226 183.333 7.66667C183.778 7.22221 182.722 7.27776 182.667 7.33333z"/>
<path style="fill:#3e3e3e; stroke:none;" d="M97 8L98 9L97 8z"/>
<path style="fill:#7d7d7d; stroke:none;" d="M98 8L99 9L98 8z"/>
<path style="fill:#c0c0c0; stroke:none;" d="M99 8L100 9L99 8z"/>
<path style="fill:#a6a6a6; stroke:none;" d="M187 8L188 9L187 8z"/>
<path style="fill:#666666; stroke:none;" d="M188 8L189 9L188 8z"/>
<path style="fill:#c2c2c2; stroke:none;" d="M93 9L94 10L93 9z"/>
<path style="fill:#c9c9c9; stroke:none;" d="M192 9L193 10L192 9z"/>
<path style="fill:#888888; stroke:none;" d="M193 9L194 10L193 9z"/>
<path style="fill:#2d2d2d; stroke:none;" d="M194 9L195 10L194 9z"/>
<path style="fill:#cbcbcb; stroke:none;" d="M197 10L198 11L197 10z"/>
<path style="fill:#666666; stroke:none;" d="M198 10L199 11L198 10z"/>
<path style="fill:#737373; stroke:none;" d="M202 11L203 12L202 11z"/>
<path style="fill:#c6c6c6; stroke:none;" d="M205 12L206 13L205 12z"/>
<path style="fill:#747474; stroke:none;" d="M206 12L207 13L206 12z"/>
<path style="fill:#3c3c3c; stroke:none;" d="M207 12L208 13L207 12z"/>
<path style="fill:#b1b1b1; stroke:none;" d="M93 13L94 14L93 13z"/>
<path style="fill:#c9c9c9; stroke:none;" d="M209 13L210 14L209 13z"/>
<path style="fill:#5b5b5b; stroke:none;" d="M210 13L211 14L210 13z"/>
<path style="fill:#4c4c4c; stroke:none;" d="M93 14L93 17C93.6961 15.4463 93.6961 15.5537 93 14z"/>
<path style="fill:#989898; stroke:none;" d="M213 14L214 15L213 14z"/>
<path style="fill:#303030; stroke:none;" d="M214 14L215 15L214 14z"/>
<path style="fill:#737373; stroke:none;" d="M216 15L217 16L216 15z"/>
<path style="fill:#858585; stroke:none;" d="M219 16L220 17L219 16z"/>
<path style="fill:#404040; stroke:none;" d="M91 17L92 18L91 17z"/>
<path style="fill:#8d8d8d; stroke:none;" d="M92 17L93 18L92 17z"/>
<path style="fill:#cbcbcb; stroke:none;" d="M93 17L94 18L93 17z"/>
<path style="fill:#717171; stroke:none;" d="M222 17L223 18L222 17z"/>
<path style="fill:#a9a9a9; stroke:none;" d="M88 18L89 19L88 18z"/>
<path style="fill:#454545; stroke:none;" d="M225 18L226 19L225 18z"/>
<path style="fill:#535353; stroke:none;" d="M84 19L85 20L84 19z"/>
<path style="fill:#c5c5c5; stroke:none;" d="M85 19L86 20L85 19z"/>
<path style="fill:#898989; stroke:none;" d="M227 19L228 20L227 19z"/>
<path style="fill:#909090; stroke:none;" d="M81 20L82 21L81 20z"/>
<path style="fill:#c3c3c3; stroke:none;" d="M229 20L230 21L229 20z"/>
<path style="fill:#434343; stroke:none;" d="M230 20L231 21L230 20z"/>
<path style="fill:#909090; stroke:none;" d="M78 21L79 22L78 21z"/>
<path style="fill:#5a5a5a; stroke:none;" d="M232 21L233 22L232 21z"/>
<path style="fill:#989898; stroke:none;" d="M75 22L76 23L75 22z"/>
<path style="fill:#828282; stroke:none;" d="M234 22L235 23L234 22z"/>
<path style="fill:#8b8b8b; stroke:none;" d="M72 23L73 24L72 23z"/>
<path style="fill:#9d9d9d; stroke:none;" d="M236 23L237 24L236 23z"/>
<path style="fill:#636363; stroke:none;" d="M69 24L70 25L69 24z"/>
<path style="fill:#9b9b9b; stroke:none;" d="M238 24L239 25L238 24z"/>
<path style="fill:#b0b0b0; stroke:none;" d="M67 25L68 26L67 25z"/>
<path style="fill:#767676; stroke:none;" d="M240 25L241 26L240 25z"/>
<path style="fill:#424242; stroke:none;" d="M64 26L65 27L64 26z"/>
<path style="fill:#cecece; stroke:none;" d="M65 26L66 27L65 26z"/>
<path style="fill:#bfbfbf; stroke:none;" d="M118.667 26.3333C118.222 26.7778 119.278 26.7222 119.333 26.6667C119.778 26.2223 118.722 26.2777 118.667 26.3333z"/>
<path style="fill:#707070; stroke:none;" d="M120 26C121.248 26.6848 121.548 26.7488 123 27C121.752 26.3152 121.452 26.2512 120 26z"/>
<path style="fill:#3c3c3c; stroke:none;" d="M123.667 26.3333C123.222 26.7778 124.278 26.7222 124.333 26.6667C124.778 26.2223 123.722 26.2778 123.667 26.3333z"/>
<path style="fill:#1c1c1c; stroke:none;" d="M125 26C126.248 26.6848 126.548 26.7488 128 27C126.752 26.3152 126.452 26.2512 125 26z"/>
<path style="fill:#242424; stroke:none;" d="M149 26C150.248 26.6848 150.549 26.7488 152 27C150.752 26.3152 150.452 26.2512 149 26z"/>
<path style="fill:#545454; stroke:none;" d="M152 26C153.248 26.6848 153.548 26.7488 155 27C153.752 26.3152 153.452 26.2512 152 26z"/>
<path style="fill:#9d9d9d; stroke:none;" d="M155 26L156 27L155 26z"/>
<path style="fill:#585858; stroke:none;" d="M242 26L243 27L242 26z"/>
<path style="fill:#6d6d6d; stroke:none;" d="M62 27L63 28L62 27z"/>
<path style="fill:#919191; stroke:none;" d="M110.667 27.3333C110.222 27.7778 111.278 27.7222 111.333 27.6667C111.778 27.2222 110.722 27.2778 110.667 27.3333z"/>
<path style="fill:#303030; stroke:none;" d="M112.667 27.3333C112.222 27.7778 113.278 27.7222 113.333 27.6667C113.778 27.2223 112.722 27.2778 112.667 27.3333z"/>
<path style="fill:#2d2d2d; stroke:none;" d="M162 27L163 28L162 27z"/>
<path style="fill:#5d5d5d; stroke:none;" d="M163 27L164 28L163 27z"/>
<path style="fill:#949494; stroke:none;" d="M164 27L165 28L164 27z"/>
<path style="fill:#343434; stroke:none;" d="M244 27L245 28L244 27z"/>
<path style="fill:#8f8f8f; stroke:none;" d="M60 28L61 29L60 28z"/>
<path style="fill:#505050; stroke:none;" d="M104.667 28.3333C104.222 28.7778 105.278 28.7222 105.333 28.6667C105.778 28.2222 104.722 28.2778 104.667 28.3333z"/>
<path style="fill:#323232; stroke:none;" d="M169 28L170 29L169 28z"/>
<path style="fill:#646464; stroke:none;" d="M170 28L171 29L170 28z"/>
<path style="fill:#a4a4a4; stroke:none;" d="M171 28L172 29L171 28z"/>
<path style="fill:#bdbdbd; stroke:none;" d="M245 28L246 29L245 28z"/>
<path style="fill:#939393; stroke:none;" d="M58 29L59 30L58 29z"/>
<path style="fill:#bcbcbc; stroke:none;" d="M98 29L99 30L98 29z"/>
<path style="fill:#727272; stroke:none;" d="M99 29L100 30L99 29z"/>
<path style="fill:#8d8d8d; stroke:none;" d="M176 29L177 30L176 29z"/>
<path style="fill:#c7c7c7; stroke:none;" d="M177 29L178 30L177 29z"/>
<path style="fill:#878787; stroke:none;" d="M247 29L248 30L247 29z"/>
<path style="fill:#8d8d8d; stroke:none;" d="M56 30L57 31L56 30z"/>
<path style="fill:#8f8f8f; stroke:none;" d="M94 30L95 31L94 30z"/>
<path style="fill:#3d3d3d; stroke:none;" d="M95 30L96 31L95 30z"/>
<path style="fill:#404040; stroke:none;" d="M180 30L181 31L180 30z"/>
<path style="fill:#969696; stroke:none;" d="M181 30L182 31L181 30z"/>
<path style="fill:#3f3f3f; stroke:none;" d="M249 30L250 31L249 30z"/>
<path style="fill:#7c7c7c; stroke:none;" d="M54 31L55 32L54 31z"/>
<path style="fill:#8f8f8f; stroke:none;" d="M90 31L91 32L90 31z"/>
<path style="fill:#363636; stroke:none;" d="M91 31L92 32L91 31z"/>
<path style="fill:#2f2f2f; stroke:none;" d="M184 31L185 32L184 31z"/>
<path style="fill:#848484; stroke:none;" d="M185 31L186 32L185 31z"/>
<path style="fill:#8d8d8d; stroke:none;" d="M250 31L251 32L250 31z"/>
<path style="fill:#5b5b5b; stroke:none;" d="M52 32L53 33L52 32z"/>
<path style="fill:#a1a1a1; stroke:none;" d="M86 32L87 33L86 32z"/>
<path style="fill:#333333; stroke:none;" d="M87 32L88 33L87 32z"/>
<path style="fill:#3d3d3d; stroke:none;" d="M188 32L189 33L188 32z"/>
<path style="fill:#9f9f9f; stroke:none;" d="M189 32L190 33L189 32z"/>
<path style="fill:#4a4a4a; stroke:none;" d="M50 33L51 34L50 33z"/>
<path style="fill:#737373; stroke:none;" d="M83 33L84 34L83 33z"/>
<path style="fill:#6b6b6b; stroke:none;" d="M192 33L193 34L192 33z"/>
<path style="fill:#727272; stroke:none;" d="M253 33L254 34L253 33z"/>
<path style="fill:#d3d3d3; stroke:none;" d="M79 34L80 35L79 34z"/>
<path style="fill:#232323; stroke:none;" d="M80.6667 34.3333C80.2222 34.7778 81.2778 34.7222 81.3333 34.6667C81.7778 34.2222 80.7222 34.2778 80.6667 34.3333z"/>
<path style="fill:#1a1a1a; stroke:none;" d="M136 34C137.248 34.6848 137.548 34.7488 139 35C137.752 34.3152 137.452 34.2512 136 34z"/>
<path style="fill:#434343; stroke:none;" d="M139.667 34.3333C139.222 34.7777 140.278 34.7223 140.333 34.6667C140.778 34.2222 139.722 34.2778 139.667 34.3333z"/>
<path style="fill:#545454; stroke:none;" d="M141 34C143.052 34.8742 144.747 34.9528 147 35C144.948 34.1257 143.253 34.0472 141 34z"/>
<path style="fill:#2d2d2d; stroke:none;" d="M147 34C148.769 34.7789 150.036 34.9124 152 35C150.231 34.2211 148.964 34.0876 147 34z"/>
<path style="fill:#121212; stroke:none;" d="M185 34C186.506 34.683 187.315 34.8259 189 35C187.494 34.317 186.685 34.1741 185 34z"/>
<path style="fill:#5c5c5c; stroke:none;" d="M195 34L196 35L195 34z"/>
<path style="fill:#8c8c8c; stroke:none;" d="M47 35L48 36L47 35z"/>
<path style="fill:#656565; stroke:none;" d="M77 35L78 36L77 35z"/>
<path style="fill:#515151; stroke:none;" d="M130 35L131 36L130 35z"/>
<path style="fill:#858585; stroke:none;" d="M131 35L132 36L131 35z"/>
<path style="fill:#bdbdbd; stroke:none;" d="M132 35L133 36L132 35z"/>
<path style="fill:#ffffff; stroke:none;" d="M111 41L113 47C107.417 48.6121 102.656 51.1525 101 57L90 57C93.6378 65.7286 97.0832 66 106 66C106.837 58.4865 112.427 54.579 119 51.7423C130.612 46.7308 146.012 44.9249 158 49.5625C159.806 50.261 161.468 51.1862 162.985 52.3943C173.71 60.9379 166.853 70.2321 158 76.7106C153.64 79.9014 148.825 82.3553 144 84.7523C137.293 88.0842 130.316 91.3067 123 93L122 89C106.461 93.4764 93.5335 107.953 77 108L77 111L90 111L90 114C120.24 114 150.791 115.281 180.999 113.981C186.516 113.743 190.279 110.068 196 110L196 93L193 93C190.625 101.385 183.348 101 176 101C167.442 101 158.518 100.271 150 101.105C145.756 101.52 142.165 103.941 138 104.671C132.212 105.686 125.863 105 120 105C127.282 100.023 136.094 96.706 144 92.7531C150.083 89.7115 156.44 85.4992 163 83.6373C170.361 81.5482 178.848 85.615 184.471 78.9414C196.331 64.8655 187.636 46.673 172.83 39.6543C153.862 30.6622 130.027 34.809 111 41z"/>
<path style="fill:#a7a7a7; stroke:none;" d="M157 35L158 36L157 35z"/>
<path style="fill:#454545; stroke:none;" d="M158.667 35.3333C158.222 35.7777 159.278 35.7223 159.333 35.6667C159.778 35.2222 158.722 35.2778 158.667 35.3333z"/>
<path style="fill:#585858; stroke:none;" d="M198 35L199 36L198 35z"/>
<path style="fill:#3e3e3e; stroke:none;" d="M256 35L257 36L256 35z"/>
<path style="fill:#9c9c9c; stroke:none;" d="M74 36L75 37L74 36z"/>
<path style="fill:#2f2f2f; stroke:none;" d="M124 36L125 37L124 36z"/>
<path style="fill:#7b7b7b; stroke:none;" d="M125 36L126 37L125 36z"/>
<path style="fill:#d0d0d0; stroke:none;" d="M126 36L127 37L126 36z"/>
<path style="fill:#838383; stroke:none;" d="M163 36L164 37L163 36z"/>
<path style="fill:#3b3b3b; stroke:none;" d="M164 36L165 37L164 36z"/>
<path style="fill:#9a9a9a; stroke:none;" d="M201 36L202 37L201 36z"/>
<path style="fill:#555555; stroke:none;" d="M257 36L258 37L257 36z"/>
<path style="fill:#838383; stroke:none;" d="M44 37L45 38L44 37z"/>
<path style="fill:#e0e0e0; stroke:none;" d="M66.6667 37.3333C66.2222 37.7778 67.2778 37.7222 67.3333 37.6667C67.7778 37.2223 66.7223 37.2777 66.6667 37.3333z"/>
<path style="fill:#2d2d2d; stroke:none;" d="M72 37L73 38L72 37z"/>
<path style="fill:#353535; stroke:none;" d="M120 37L121 38L120 37z"/>
<path style="fill:#858585; stroke:none;" d="M121 37L122 38L121 37z"/>
<path style="fill:#a0a0a0; stroke:none;" d="M167 37L168 38L167 37z"/>
<path style="fill:#515151; stroke:none;" d="M203 37L204 38L203 37z"/>
<path style="fill:#c5c5c5; stroke:none;" d="M204 37L205 38L204 37z"/>
<path style="fill:#919191; stroke:none;" d="M258 37L259 38L258 37z"/>
<path style="fill:#959595; stroke:none;" d="M69 38L70 39L69 38z"/>
<path style="fill:#4d4d4d; stroke:none;" d="M117 38L118 39L117 38z"/>
<path style="fill:#b7b7b7; stroke:none;" d="M118 38L119 39L118 38z"/>
<path style="fill:#929292; stroke:none;" d="M170 38L171 39L170 38z"/>
<path style="fill:#939393; stroke:none;" d="M206 38L207 39L206 38z"/>
<path style="fill:#656565; stroke:none;" d="M41 39L42 40L41 39z"/>
<path style="fill:#686868; stroke:none;" d="M67 39L68 40L67 39z"/>
<path style="fill:#444444; stroke:none;" d="M114 39L115 40L114 39z"/>
<path style="fill:#c2c2c2; stroke:none;" d="M115 39L116 40L115 39z"/>
<path style="fill:#d1d1d1; stroke:none;" d="M172 39L173 40L172 39z"/>
<path style="fill:#3b3b3b; stroke:none;" d="M173 39L174 40L173 39z"/>
<path style="fill:#858585; stroke:none;" d="M208 39L209 40L208 39z"/>
<path style="fill:#656565; stroke:none;" d="M65 40L66 41L65 40z"/>
<path style="fill:#8d8d8d; stroke:none;" d="M112 40L113 41L112 40z"/>
<path style="fill:#606060; stroke:none;" d="M175 40L176 41L175 40z"/>
<path style="fill:#646464; stroke:none;" d="M210 40L211 41L210 40z"/>
<path style="fill:#707070; stroke:none;" d="M63 41L64 42L63 41z"/>
<path style="fill:#3c3c3c; stroke:none;" d="M110 41L111 42L110 41z"/>
<path style="fill:#dbdbdb; stroke:none;" d="M175.667 41.3333C175.222 41.7777 176.278 41.7222 176.333 41.6667C176.778 41.2222 175.722 41.2778 175.667 41.3333z"/>
<path style="fill:#313131; stroke:none;" d="M177 41L178 42L177 41z"/>
<path style="fill:#666666; stroke:none;" d="M212 41L213 42L212 41z"/>
<path style="fill:#494949; stroke:none;" d="M37 42L38 43L37 42z"/>
<path style="fill:#717171; stroke:none;" d="M61 42L62 43L61 42z"/>
<path style="fill:#999999; stroke:none;" d="M111 42L112 43L111 42z"/>
<path style="fill:#7c7c7c; stroke:none;" d="M178 42L179 43L178 42z"/>
<path style="fill:#585858; stroke:none;" d="M214 42L215 43L214 42z"/>
<path style="fill:#696969; stroke:none;" d="M36 43L37 44L36 43z"/>
<path style="fill:#8e8e8e; stroke:none;" d="M59 43L60 44L59 43z"/>
<path style="fill:#191919; stroke:none;" d="M181.333 43.6667C181.278 43.7223 181.222 44.7778 181.667 44.3333C181.722 44.2778 181.778 43.2222 181.333 43.6667z"/>
<path style="fill:#808080; stroke:none;" d="M216 43L217 44L216 43z"/>
<path style="fill:#848484; stroke:none;" d="M35 44L36 45L35 44z"/>
<path style="fill:#bcbcbc; stroke:none;" d="M57 44L58 45L57 44z"/>
<path style="fill:#cacaca; stroke:none;" d="M218 44L219 45L218 44z"/>
<path style="fill:#9b9b9b; stroke:none;" d="M34 45L35 46L34 45z"/>
<path style="fill:#0d0d0d; stroke:none;" d="M56 45C56 46.7968 56.0143 46.5215 57 48L60 48C58.7708 46.1302 58.1317 45.7765 56 45z"/>
<path style="fill:#818181; stroke:none;" d="M112 45L113 46L112 45z"/>
<path style="fill:#4e4e4e; stroke:none;" d="M182 45L183 46L182 45z"/>
<path style="fill:#434343; stroke:none;" d="M219 45L220 46L219 45z"/>
<path style="fill:#cfcfcf; stroke:none;" d="M266 45L267 46L266 45z"/>
<path style="fill:#9d9d9d; stroke:none;" d="M54 46L55 47L54 46z"/>
<path style="fill:#4e4e4e; stroke:none;" d="M112 46L113 47L112 46z"/>
<path style="fill:#575757; stroke:none;" d="M183 46L184 47L183 46z"/>
<path style="fill:#9a9a9a; stroke:none;" d="M221 46L222 47L221 46z"/>
<path style="fill:#828282; stroke:none;" d="M267 46L268 47L267 46z"/>
<path style="fill:#c9c9c9; stroke:none;" d="M32 47L33 48L32 47z"/>
<path style="fill:#3a3a3a; stroke:none;" d="M53 47L54 48L53 47z"/>
<path style="fill:#717171; stroke:none;" d="M110 47L111 48L110 47M136 47C137.248 47.6848 137.548 47.7488 139 48C137.752 47.3152 137.452 47.2512 136 47z"/>
<path style="fill:#1c1c1c; stroke:none;" d="M139 47C141.332 47.9845 143.457 47.9813 146 48C143.668 47.0155 141.543 47.0187 139 47z"/>
<path style="fill:#4f4f4f; stroke:none;" d="M146 47C147.248 47.6848 147.548 47.7488 149 48C147.752 47.3152 147.452 47.2512 146 47z"/>
<path style="fill:#828282; stroke:none;" d="M149 47L150 48L149 47z"/>
<path style="fill:#d0d0d0; stroke:none;" d="M150 47L151 48L150 47z"/>
<path style="fill:#535353; stroke:none;" d="M222 47L223 48L222 47z"/>
<path style="fill:#5e5e5e; stroke:none;" d="M268 47L269 48L268 47z"/>
<path style="fill:#c2c2c2; stroke:none;" d="M31 48L32 49L31 48z"/>
<path style="fill:#b2b2b2; stroke:none;" d="M51 48L52 49L51 48z"/>
<path style="fill:#818181; stroke:none;" d="M108 48L109 49L108 48z"/>
<path style="fill:#d3d3d3; stroke:none;" d="M129 48L130 49L129 48z"/>
<path style="fill:#888888; stroke:none;" d="M130 48L131 49L130 48z"/>
<path style="fill:#404040; stroke:none;" d="M131 48L132 49L131 48z"/>
<path style="fill:#808080; stroke:none;" d="M154 48L155 49L154 48z"/>
<path style="fill:#c2c2c2; stroke:none;" d="M224 48L225 49L224 48z"/>
<path style="fill:#979797; stroke:none;" d="M30 49L31 50L30 49z"/>
<path style="fill:#797979; stroke:none;" d="M50 49L51 50L50 49z"/>
<path style="fill:#535353; stroke:none;" d="M106 49L107 50L106 49z"/>
<path style="fill:#afafaf; stroke:none;" d="M125 49L126 50L125 49z"/>
<path style="fill:#444444; stroke:none;" d="M126 49L127 50L126 49z"/>
<path style="fill:#565656; stroke:none;" d="M157 49L158 50L157 49z"/>
<path style="fill:#c6c6c6; stroke:none;" d="M158 49L159 50L158 49z"/>
<path style="fill:#aeaeae; stroke:none;" d="M185 49L186 50L185 49z"/>
<path style="fill:#6e6e6e; stroke:none;" d="M225 49L226 50L225 49z"/>
<path style="fill:#767676; stroke:none;" d="M29 50L30 51L29 50z"/>
<path style="fill:#cbcbcb; stroke:none;" d="M121 50L122 51L121 50z"/>
<path style="fill:#595959; stroke:none;" d="M122 50L123 51L122 50z"/>
<path style="fill:#979797; stroke:none;" d="M160 50L161 51L160 50z"/>
<path style="fill:#707070; stroke:none;" d="M186 50L187 51L186 50z"/>
<path style="fill:#aeaeae; stroke:none;" d="M270 50L271 51L270 50z"/>
<path style="fill:#4c4c4c; stroke:none;" d="M28 51L29 52L28 51z"/>
<path style="fill:#747474; stroke:none;" d="M119 51L120 52L119 51z"/>
<path style="fill:#b3b3b3; stroke:none;" d="M162 51L163 52L162 51z"/>
<path style="fill:#616161; stroke:none;" d="M271 51L272 52L271 51z"/>
<path style="fill:#343434; stroke:none;" d="M117 52L118 53L117 52z"/>
<path style="fill:#5c5c5c; stroke:none;" d="M163 52L164 53L163 52z"/>
<path style="fill:#818181; stroke:none;" d="M187 52L188 53L187 52z"/>
<path style="fill:#d3d3d3; stroke:none;" d="M229 52L230 53L229 52z"/>
<path style="fill:#b9b9b9; stroke:none;" d="M45 53L46 54L45 53z"/>
<path style="fill:#bfbfbf; stroke:none;" d="M114 53L115 54L114 53z"/>
<path style="fill:#131313; stroke:none;" d="M162 55L165 54C163.222 53.0445 162.979 53.2337 162 55z"/>
<path style="fill:#b2b2b2; stroke:none;" d="M230 53L231 54L230 53z"/>
<path style="fill:#8e8e8e; stroke:none;" d="M272 53L273 54L272 53z"/>
<path style="fill:#bababa; stroke:none;" d="M26 54L27 55L26 54z"/>
<path style="fill:#9d9d9d; stroke:none;" d="M44 54L45 55L44 54z"/>
<path style="fill:#535353; stroke:none;" d="M188 54L189 55L188 54z"/>
<path style="fill:#a8a8a8; stroke:none;" d="M231 54L232 55L231 54z"/>
<path style="fill:#6f6f6f; stroke:none;" d="M25 55L26 56L25 55z"/>
<path style="fill:#999999; stroke:none;" d="M43 55L44 56L43 55z"/>
<path style="fill:#e0e0e0; stroke:none;" d="M100.333 55.6667C100.278 55.7222 100.222 56.7778 100.667 56.3333C100.722 56.2778 100.778 55.2222 100.333 55.6667z"/>
<path style="fill:#a7a7a7; stroke:none;" d="M111 55L112 56L111 55z"/>
<path style="fill:#d1d1d1; stroke:none;" d="M188 55L189 56L188 55z"/>
<path style="fill:#bfbfbf; stroke:none;" d="M273 55L274 56L273 55z"/>
<path style="fill:#3b3b3b; stroke:none;" d="M99 56L100 57L99 56z"/>
<path style="fill:#494949; stroke:none;" d="M110 56L111 57L110 56z"/>
<path style="fill:#4d4d4d; stroke:none;" d="M167 56L168 57L167 56z"/>
<path style="fill:#a9a9a9; stroke:none;" d="M233 56L234 57L233 56z"/>
<path style="fill:#b8b8b8; stroke:none;" d="M24 57L25 58L24 57z"/>
<path style="fill:#3e3e3e; stroke:none;" d="M109 57L110 58L109 57z"/>
<path style="fill:#343434; stroke:none;" d="M189 57L190 58L189 57z"/>
<path style="fill:#a8a8a8; stroke:none;" d="M274 57L275 58L274 57z"/>
<path style="fill:#6d6d6d; stroke:none;" d="M23 58L24 59L23 58z"/>
<path style="fill:#727272; stroke:none;" d="M90 58L91 59L90 58z"/>
<path style="fill:#545454; stroke:none;" d="M108 58L109 59L108 58z"/>
<path style="fill:#7a7a7a; stroke:none;" d="M168 58L169 59L168 58z"/>
<path style="fill:#8c8c8c; stroke:none;" d="M189 58L190 59L189 58z"/>
<path style="fill:#363636; stroke:none;" d="M40 59L41 60L40 59z"/>
<path style="fill:#909090; stroke:none;" d="M107 59L108 60L107 59z"/>
<path style="fill:#3d3d3d; stroke:none;" d="M235 59L236 60L235 59z"/>
<path style="fill:#acacac; stroke:none;" d="M275 59L276 60L275 59z"/>
<path style="fill:#777777; stroke:none;" d="M22 60L23 61L22 60z"/>
<path style="fill:#848484; stroke:none;" d="M39 60L40 61L39 60z"/>
<path style="fill:#808080; stroke:none;" d="M91 60L92 61L91 60z"/>
<path style="fill:#979797; stroke:none;" d="M236 60L237 61L236 60z"/>
<path style="fill:#cdcdcd; stroke:none;" d="M106 61L106 64C106.696 62.4463 106.696 62.5537 106 61z"/>
<path style="fill:#c4c4c4; stroke:none;" d="M169.333 61.6667C169.278 61.7222 169.222 62.7778 169.667 62.3333C169.722 62.2778 169.778 61.2222 169.333 61.6667z"/>
<path style="fill:#585858; stroke:none;" d="M276 61L277 62L276 61z"/>
<path style="fill:#5a5a5a; stroke:none;" d="M21 62L22 63L21 62z"/>
<path style="fill:#d1d1d1; stroke:none;" d="M33 62L34 63L33 62z"/>
<path style="fill:#4a4a4a; stroke:none;" d="M38 62L39 63L38 62z"/>
<path style="fill:#a9a9a9; stroke:none;" d="M92 62L93 63L92 62z"/>
<path style="fill:#292929; stroke:none;" d="M190 62L190 66C190.71 64.2405 190.71 63.7595 190 62z"/>
<path style="fill:#d4d4d4; stroke:none;" d="M276 62L277 63L276 62z"/>
<path style="fill:#bababa; stroke:none;" d="M37 63L38 64L37 63z"/>
<path style="fill:#9d9d9d; stroke:none;" d="M238 63L239 64L238 63z"/>
<path style="fill:#4e4e4e; stroke:none;" d="M20 64L21 65L20 64z"/>
<path style="fill:#b4b4b4; stroke:none;" d="M93 64L94 65L93 64z"/>
<path style="fill:#b1b1b1; stroke:none;" d="M106.333 64.6667C106.278 64.7222 106.222 65.7778 106.667 65.3333C106.722 65.2778 106.778 64.2222 106.333 64.6667z"/>
<path style="fill:#565656; stroke:none;" d="M277 64L278 65L277 64z"/>
<path style="fill:#979797; stroke:none;" d="M36 65L37 66L36 65z"/>
<path style="fill:#363636; stroke:none;" d="M93 65L94 66L93 65z"/>
<path style="fill:#676767; stroke:none;" d="M168 65L169 66L168 65z"/>
<path style="fill:#9a9a9a; stroke:none;" d="M239 65L240 66L239 65z"/>
<path style="fill:#aaaaaa; stroke:none;" d="M277 65L278 66L277 65z"/>
<path style="fill:#747474; stroke:none;" d="M4 66L5 67L4 66z"/>
<path style="fill:#7e7e7e; stroke:none;" d="M94 66C97.9587 67.6611 102.737 67 107 67C103.041 65.3389 98.2634 66 94 66z"/>
<path style="fill:#cacaca; stroke:none;" d="M35 67L36 68L35 67z"/>
<path style="fill:#565656; stroke:none;" d="M167 67L168 68L167 67z"/>
<path style="fill:#cacaca; stroke:none;" d="M240 67L241 68L240 67z"/>
<path style="fill:#606060; stroke:none;" d="M5 68L6 69L5 68z"/>
<path style="fill:#4f4f4f; stroke:none;" d="M35 68L36 69L35 68z"/>
<path style="fill:#535353; stroke:none;" d="M240 68L241 69L240 68z"/>
<path style="fill:#404040; stroke:none;" d="M278 68L279 69L278 68z"/>
<path style="fill:#939393; stroke:none;" d="M166 69L167 70L166 69z"/>
<path style="fill:#b3b3b3; stroke:none;" d="M189 69L190 70L189 69z"/>
<path style="fill:#828282; stroke:none;" d="M278 69L279 70L278 69z"/>
<path style="fill:#3c3c3c; stroke:none;" d="M6 70L7 71L6 70z"/>
<path style="fill:#c8c8c8; stroke:none;" d="M34 70L35 71L34 70z"/>
<path style="fill:#7b7b7b; stroke:none;" d="M165 70L166 71L165 70z"/>
<path style="fill:#3f3f3f; stroke:none;" d="M189 70L190 71L189 70z"/>
<path style="fill:#b7b7b7; stroke:none;" d="M241 70L242 71L241 70z"/>
<path style="fill:#656565; stroke:none;" d="M34 71L35 72L34 71z"/>
<path style="fill:#6b6b6b; stroke:none;" d="M164 71L165 72L164 71z"/>
<path style="fill:#808080; stroke:none;" d="M241 71L242 72L241 71z"/>
<path style="fill:#707070; stroke:none;" d="M163 72L164 73L163 72z"/>
<path style="fill:#a8a8a8; stroke:none;" d="M188 72L189 73L188 72z"/>
<path style="fill:#868686; stroke:none;" d="M8 73L9 74L8 73z"/>
<path style="fill:#848484; stroke:none;" d="M162 73L163 74L162 73z"/>
<path style="fill:#e2e2e2; stroke:none;" d="M277.333 73.6667C277.278 73.7222 277.222 74.7778 277.667 74.3333C277.722 74.2777 277.778 73.2222 277.333 73.6667z"/>
<path style="fill:#949494; stroke:none;" d="M187 74L188 75L187 74z"/>
<path style="fill:#818181; stroke:none;" d="M282 74L283 75L282 74z"/>
<path style="fill:#8a8a8a; stroke:none;" d="M9 75L10 76L9 75z"/>
<path style="fill:#999999; stroke:none;" d="M285 75L286 76L285 75z"/>
<path style="fill:#343434; stroke:none;" d="M286.667 75.3333C286.222 75.7779 287.278 75.7221 287.333 75.6667C287.778 75.2223 286.722 75.2777 286.667 75.3333z"/>
<path style="fill:#535353; stroke:none;" d="M158 76L159 77L158 76z"/>
<path style="fill:#656565; stroke:none;" d="M186 76L187 77L186 76z"/>
<path style="fill:#2a2a2a; stroke:none;" d="M306 76L306 80C306.71 78.2405 306.71 77.7595 306 76z"/>
<path style="fill:#595959; stroke:none;" d="M10 77L11 78L10 77z"/>
<path style="fill:#d2d2d2; stroke:none;" d="M157 77L158 78L157 77z"/>
<path style="fill:#cecece; stroke:none;" d="M185 77L186 78L185 77z"/>
<path style="fill:#6c6c6c; stroke:none;" d="M155 78L156 79L155 78z"/>
<path style="fill:#313131; stroke:none;" d="M11 79L12 80L11 79z"/>
<path style="fill:#2c2c2c; stroke:none;" d="M153 79L154 80L153 79z"/>
<path style="fill:#070707; stroke:none;" d="M3 80L3 126C3 137.24 3.56173 148.099 1 159C14.0143 155.942 27.5902 157 41 157L105 157L312 157C306.049 154.503 297.42 156 291 156L244 156L82 156L26 156C21.0677 156 9.34493 158.138 5.60339 154.397C1.97722 150.77 4 139.762 4 135L4 98C4 92.3809 5.18892 85.2165 3 80z"/>
<path style="fill:#0f0f0f; stroke:none;" d="M14 80C19.2224 82.1914 26.3678 81 32 81C26.7776 78.8086 19.6322 80 14 80z"/>
<path style="fill:#777777; stroke:none;" d="M152 80L153 81L152 80z"/>
<path style="fill:#5e5e5e; stroke:none;" d="M150 81L151 82L150 81z"/>
<path style="fill:#555555; stroke:none;" d="M148 82L149 83L148 82z"/>
<path style="fill:#333333; stroke:none;" d="M241 82L242 83L241 82z"/>
<path style="fill:#b5b5b5; stroke:none;" d="M287 82L288 83L287 82z"/>
<path style="fill:#343434; stroke:none;" d="M288 82C292.724 83.9822 298.91 83 304 83C299.276 81.0178 293.09 82 288 82z"/>
<path style="fill:#606060; stroke:none;" d="M304.667 82.3333C304.222 82.7779 305.278 82.7222 305.333 82.6667C305.778 82.2223 304.722 82.2778 304.667 82.3333z"/>
<path style="fill:#545454; stroke:none;" d="M146 83L147 84L146 83z"/>
<path style="fill:#717171; stroke:none;" d="M162 83L163 84L162 83z"/>
<path style="fill:#262626; stroke:none;" d="M164 83C168.217 84.7693 173.459 84 178 84C173.783 82.2307 168.541 83 164 83z"/>
<path style="fill:#3f3f3f; stroke:none;" d="M178.667 83.3333C178.222 83.7777 179.278 83.7222 179.333 83.6667C179.778 83.2222 178.722 83.2778 178.667 83.3333z"/>
<path style="fill:#a2a2a2; stroke:none;" d="M241 83L242 84L241 83z"/>
<path style="fill:#b2b2b2; stroke:none;" d="M283 83L284 84L283 83z"/>
<path style="fill:#3e3e3e; stroke:none;" d="M284 83L285 84L284 83z"/>
<path style="fill:#525252; stroke:none;" d="M144 84L145 85L144 84z"/>
<path style="fill:#555555; stroke:none;" d="M160 84L161 85L160 84z"/>
<path style="fill:#7d7d7d; stroke:none;" d="M281 84L282 85L281 84z"/>
<path style="fill:#505050; stroke:none;" d="M142 85L143 86L142 85z"/>
<path style="fill:#4f4f4f; stroke:none;" d="M158 85L159 86L158 85z"/>
<path style="fill:#999999; stroke:none;" d="M279 85L280 86L279 85z"/>
<path style="fill:#777777; stroke:none;" d="M140 86L141 87L140 86z"/>
<path style="fill:#555555; stroke:none;" d="M156 86L157 87L156 86z"/>
<path style="fill:#7a7a7a; stroke:none;" d="M240 86L241 87L240 86z"/>
<path style="fill:#919191; stroke:none;" d="M278 86L279 87L278 86z"/>
<path style="fill:#8a8a8a; stroke:none;" d="M138 87L139 88L138 87z"/>
<path style="fill:#656565; stroke:none;" d="M154 87L155 88L154 87z"/>
<path style="fill:#191919; stroke:none;" d="M159.667 87.3333C159.222 87.7777 160.278 87.7222 160.333 87.6667C160.778 87.2222 159.722 87.2778 159.667 87.3333z"/>
<path style="fill:#414141; stroke:none;" d="M120 88L121 89L120 88z"/>
<path style="fill:#737373; stroke:none;" d="M121 88L122 89L121 88z"/>
<path style="fill:#4b4b4b; stroke:none;" d="M239 88L240 89L239 88z"/>
<path style="fill:#8a8a8a; stroke:none;" d="M277 88L278 89L277 88z"/>
<path style="fill:#acacac; stroke:none;" d="M119 89L120 90L119 89z"/>
<path style="fill:#727272; stroke:none;" d="M133 89L134 90L133 89z"/>
<path style="fill:#555555; stroke:none;" d="M150 89L151 90L150 89z"/>
<path style="fill:#c9c9c9; stroke:none;" d="M239 89L240 90L239 89z"/>
<path style="fill:#444444; stroke:none;" d="M277 89L278 90L277 89z"/>
<path style="fill:#a0a0a0; stroke:none;" d="M117 90L118 91L117 90z"/>
<path style="fill:#959595; stroke:none;" d="M131 90L132 91L131 90z"/>
<path style="fill:#6e6e6e; stroke:none;" d="M148 90L149 91L148 90z"/>
<path style="fill:#484848; stroke:none;" d="M238 90L239 91L238 90z"/>
<path style="fill:#828282; stroke:none;" d="M115 91L116 92L115 91z"/>
<path style="fill:#696969; stroke:none;" d="M128 91L129 92L128 91z"/>
<path style="fill:#5d5d5d; stroke:none;" d="M146 91L147 92L146 91z"/>
<path style="fill:#b3b3b3; stroke:none;" d="M276 91L277 92L276 91z"/>
<path style="fill:#787878; stroke:none;" d="M113 92L114 93L113 92z"/>
<path style="fill:#c8c8c8; stroke:none;" d="M123 92L124 93L123 92z"/>
<path style="fill:#5f5f5f; stroke:none;" d="M125 92L126 93L125 92z"/>
<path style="fill:#f2f2f2; stroke:none;" d="M129 96C131.018 96.3401 131.968 96.3233 134 96C133.402 94.8046 133.534 95.0226 132 94L136 93C132.657 91.8412 130.844 93.16 129 96z"/>
<path style="fill:#4b4b4b; stroke:none;" d="M144 92L145 93L144 92z"/>
<path style="fill:#191919; stroke:none;" d="M148 92L148 95C149.015 93.8607 149.309 93.3884 150 92L148 92z"/>
<path style="fill:#7c7c7c; stroke:none;" d="M237 92L238 93L237 92z"/>
<path style="fill:#373737; stroke:none;" d="M276 92L277 93L276 92z"/>
<path style="fill:#606060; stroke:none;" d="M111 93L112 94L111 93z"/>
<path style="fill:#8d8d8d; stroke:none;" d="M142 93L143 94L142 93z"/>
<path style="fill:#414141; stroke:none;" d="M196 93L196 96C196.696 94.4463 196.696 94.5537 196 93z"/>
<path style="fill:#696969; stroke:none;" d="M109 94L110 95L109 94z"/>
<path style="fill:#9f9f9f; stroke:none;" d="M140 94L141 95L140 94z"/>
<path style="fill:#7c7c7c; stroke:none;" d="M275 94L276 95L275 94z"/>
<path style="fill:#4b4b4b; stroke:none;" d="M107 95L108 96L107 95z"/>
<path style="fill:#979797; stroke:none;" d="M138 95L139 96L138 95z"/>
<path style="fill:#656565; stroke:none;" d="M235 95L236 96L235 95z"/>
<path style="fill:#525252; stroke:none;" d="M105 96L106 97L105 96z"/>
<path style="fill:#838383; stroke:none;" d="M136 96L137 97L136 96z"/>
<path style="fill:#606060; stroke:none;" d="M192 96L193 97L192 96z"/>
<path style="fill:#272727; stroke:none;" d="M196 96L196 101C196.83 98.9695 196.83 98.0305 196 96z"/>
<path style="fill:#454545; stroke:none;" d="M234 96L235 97L234 96z"/>
<path style="fill:#a0a0a0; stroke:none;" d="M274 96L275 97L274 96z"/>
<path style="fill:#959595; stroke:none;" d="M134 97L135 98L134 97z"/>
<path style="fill:#b2b2b2; stroke:none;" d="M102 98L103 99L102 98z"/>
<path style="fill:#919191; stroke:none;" d="M132 98L133 99L132 98z"/>
<path style="fill:#434343; stroke:none;" d="M190 98L191 99L190 98z"/>
<path style="fill:#9e9e9e; stroke:none;" d="M273 98L274 99L273 98z"/>
<path style="fill:#9d9d9d; stroke:none;" d="M100 99L101 100L100 99z"/>
<path style="fill:#727272; stroke:none;" d="M130 99L131 100L130 99z"/>
<path style="fill:#808080; stroke:none;" d="M189 99L190 100L189 99z"/>
<path style="fill:#202020; stroke:none;" d="M230.667 99.3333C230.222 99.7778 231.278 99.7222 231.333 99.6667C231.778 99.2223 230.722 99.2778 230.667 99.3333z"/>
<path style="fill:#838383; stroke:none;" d="M98 100L99 101L98 100z"/>
<path style="fill:#737373; stroke:none;" d="M128 100L129 101L128 100z"/>
<path style="fill:#777777; stroke:none;" d="M187 100L188 101L187 100z"/>
<path style="fill:#898989; stroke:none;" d="M272 100L273 101L272 100z"/>
<path style="fill:#878787; stroke:none;" d="M96 101L97 102L96 101z"/>
<path style="fill:#7f7f7f; stroke:none;" d="M126 101L127 102L126 101z"/>
<path style="fill:#828282; stroke:none;" d="M146 101L147 102L146 101z"/>
<path style="fill:#5a5a5a; stroke:none;" d="M196 101L196 110C197.256 107.006 197.256 103.994 196 101z"/>
<path style="fill:#585858; stroke:none;" d="M94 102L95 103L94 102z"/>
<path style="fill:#b8b8b8; stroke:none;" d="M123 102L124 103L123 102z"/>
<path style="fill:#4a4a4a; stroke:none;" d="M124 102L125 103L124 102z"/>
<path style="fill:#969696; stroke:none;" d="M144 102L145 103L144 102z"/>
<path style="fill:#6c6c6c; stroke:none;" d="M271 102L272 103L271 102z"/>
<path style="fill:#525252; stroke:none;" d="M92 103L93 104L92 103z"/>
<path style="fill:#9b9b9b; stroke:none;" d="M121 103L122 104L121 103z"/>
<path style="fill:#3a3a3a; stroke:none;" d="M120 104C125.715 106.398 133.831 105 140 105C134.669 102.763 125.738 103.359 120 104z"/>
<path style="fill:#494949; stroke:none;" d="M141 103L142 104L141 103z"/>
<path style="fill:#cfcfcf; stroke:none;" d="M142 103L143 104L142 103z"/>
<path style="fill:#4d4d4d; stroke:none;" d="M227 103L228 104L227 103z"/>
<path style="fill:#bdbdbd; stroke:none;" d="M270 103L271 104L270 103z"/>
<path style="fill:#323232; stroke:none;" d="M90 104L91 105L90 104z"/>
<path style="fill:#838383; stroke:none;" d="M226 104L227 105L226 104z"/>
<path style="fill:#b9b9b9; stroke:none;" d="M89 105L90 106L89 105z"/>
<path style="fill:#c5c5c5; stroke:none;" d="M225 105L226 106L225 105z"/>
<path style="fill:#393939; stroke:none;" d="M269 105L270 106L269 105z"/>
<path style="fill:#2c2c2c; stroke:none;" d="M86 106L87 107L86 106z"/>
<path style="fill:#a8a8a8; stroke:none;" d="M87 106L88 107L87 106z"/>
<path style="fill:#434343; stroke:none;" d="M223 106L224 107L223 106z"/>
<path style="fill:#767676; stroke:none;" d="M268 106L269 107L268 106z"/>
<path style="fill:#7b7b7b; stroke:none;" d="M77 107C78.7691 107.779 80.0359 107.912 82 108C80.231 107.221 78.964 107.088 77 107z"/>
<path style="fill:#8c8c8c; stroke:none;" d="M82 107C83.5061 107.683 84.3148 107.826 86 108C84.494 107.317 83.6852 107.174 82 107z"/>
<path style="fill:#b4b4b4; stroke:none;" d="M222 107L223 108L222 107z"/>
<path style="fill:#3d3d3d; stroke:none;" d="M220 108L221 109L220 108z"/>
<path style="fill:#c9c9c9; stroke:none;" d="M219 109L220 110L219 109z"/>
<path style="fill:#d3d3d3; stroke:none;" d="M188 110L189 111L188 110z"/>
<path style="fill:#737373; stroke:none;" d="M189 110L190 111L189 110z"/>
<path style="fill:#1b1b1b; stroke:none;" d="M190 110C192.129 111.25 193.494 111.16 196 111C193.948 110.126 192.253 110.047 190 110z"/>
<path style="fill:#666666; stroke:none;" d="M217 110L218 111L217 110z"/>
<path style="fill:#4f4f4f; stroke:none;" d="M265 110L266 111L265 110z"/>
<path style="fill:#7e7e7e; stroke:none;" d="M188 111L189 112L188 111z"/>
<path style="fill:#707070; stroke:none;" d="M264 111L265 112L264 111z"/>
<path style="fill:#888888; stroke:none;" d="M187 112L188 113L187 112z"/>
<path style="fill:#383838; stroke:none;" d="M213 112L214 113L213 112z"/>
<path style="fill:#cfcfcf; stroke:none;" d="M214 112L215 113L214 112z"/>
<path style="fill:#818181; stroke:none;" d="M263 112L264 113L263 112z"/>
<path style="fill:#878787; stroke:none;" d="M186 113L187 114L186 113z"/>
<path style="fill:#4e4e4e; stroke:none;" d="M211 113L212 114L211 113z"/>
<path style="fill:#9f9f9f; stroke:none;" d="M262 113L263 114L262 113z"/>
<path style="fill:#4b4b4b; stroke:none;" d="M90 114C97.879 117.306 110.466 115 119 115L186 115C178.121 111.694 165.534 114 157 114L90 114z"/>
<path style="fill:#404040; stroke:none;" d="M209 114L210 115L209 114z"/>
<path style="fill:#c5c5c5; stroke:none;" d="M210 114L211 115L210 114z"/>
<path style="fill:#989898; stroke:none;" d="M261 114L262 115L261 114z"/>
<path style="fill:#3f3f3f; stroke:none;" d="M207 115L208 116L207 115z"/>
<path style="fill:#868686; stroke:none;" d="M260 115L261 116L260 115z"/>
<path style="fill:#929292; stroke:none;" d="M205 116L206 117L205 116z"/>
<path style="fill:#7a7a7a; stroke:none;" d="M259 116L260 117L259 116z"/>
<path style="fill:#3b3b3b; stroke:none;" d="M202 117L203 118L202 117z"/>
<path style="fill:#4f4f4f; stroke:none;" d="M258 117L259 118L258 117z"/>
<path style="fill:#252525; stroke:none;" d="M198.667 118.333C198.222 118.778 199.278 118.722 199.333 118.667C199.778 118.222 198.722 118.278 198.667 118.333z"/>
<path style="fill:#b5b5b5; stroke:none;" d="M200 118L201 119L200 118z"/>
<path style="fill:#474747; stroke:none;" d="M257 118L258 119L257 118z"/>
<path style="fill:#646464; stroke:none;" d="M77.6667 119.333C77.2222 119.778 78.2778 119.722 78.3333 119.667C78.7778 119.222 77.7222 119.278 77.6667 119.333z"/>
<path style="fill:#606060; stroke:none;" d="M197 119L198 120L197 119z"/>
<path style="fill:#cecece; stroke:none;" d="M198 119L199 120L198 119z"/>
<path style="fill:#7e7e7e; stroke:none;" d="M76 120L77 121L76 120z"/>
<path style="fill:#6a6a6a; stroke:none;" d="M81 120L82 121L81 120z"/>
<path style="fill:#737373; stroke:none;" d="M194 120L195 121L194 120z"/>
<path style="fill:#b8b8b8; stroke:none;" d="M254 120L255 121L254 120z"/>
<path style="fill:#818181; stroke:none;" d="M75 121L76 122L75 121z"/>
<path style="fill:#929292; stroke:none;" d="M84 121L85 122L84 121z"/>
<path style="fill:#2e2e2e; stroke:none;" d="M85 121L86 122L85 121z"/>
<path style="fill:#636363; stroke:none;" d="M191 121L192 122L191 121z"/>
<path style="fill:#929292; stroke:none;" d="M253 121L254 122L253 121z"/>
<path style="fill:#a2a2a2; stroke:none;" d="M74 122L75 123L74 122z"/>
<path style="fill:#c9c9c9; stroke:none;" d="M87 122L88 123L87 122z"/>
<path style="fill:#616161; stroke:none;" d="M187 122L188 123L187 122z"/>
<path style="fill:#c7c7c7; stroke:none;" d="M188 122L189 123L188 122z"/>
<path style="fill:#414141; stroke:none;" d="M252 122L253 123L252 122z"/>
<path style="fill:#c8c8c8; stroke:none;" d="M73 123L74 124L73 123z"/>
<path style="fill:#aeaeae; stroke:none;" d="M91 123L92 124L91 123z"/>
<path style="fill:#4c4c4c; stroke:none;" d="M92 123L93 124L92 123z"/>
<path style="fill:#3d3d3d; stroke:none;" d="M183 123L184 124L183 123z"/>
<path style="fill:#b8b8b8; stroke:none;" d="M184 123L185 124L184 123M72 124L73 125L72 124z"/>
<path style="fill:#3d3d3d; stroke:none;" d="M96.6667 124.333C96.2222 124.778 97.2778 124.722 97.3333 124.667C97.7778 124.222 96.7222 124.278 96.6667 124.333z"/>
<path style="fill:#737373; stroke:none;" d="M179 124L180 125L179 124z"/>
<path style="fill:#d2d2d2; stroke:none;" d="M180 124L181 125L180 124z"/>
<path style="fill:#737373; stroke:none;" d="M249 124L250 125L249 124z"/>
<path style="fill:#bcbcbc; stroke:none;" d="M100 125L101 126L100 125z"/>
<path style="fill:#767676; stroke:none;" d="M101 125L102 126L101 125z"/>
<path style="fill:#383838; stroke:none;" d="M173 125L174 126L173 125z"/>
<path style="fill:#7d7d7d; stroke:none;" d="M174 125L175 126L174 125z"/>
<path style="fill:#aeaeae; stroke:none;" d="M175 125L176 126L175 125z"/>
<path style="fill:#353535; stroke:none;" d="M248 125L249 126L248 125z"/>
<path style="fill:#aeaeae; stroke:none;" d="M106 126L107 127L106 126z"/>
<path style="fill:#676767; stroke:none;" d="M107 126L108 127L107 126z"/>
<path style="fill:#2a2a2a; stroke:none;" d="M166.667 126.333C166.222 126.778 167.278 126.722 167.333 126.667C167.778 126.222 166.722 126.278 166.667 126.333z"/>
<path style="fill:#6f6f6f; stroke:none;" d="M168 126L169 127L168 126z"/>
<path style="fill:#9f9f9f; stroke:none;" d="M169 126L170 127L169 126z"/>
<path style="fill:#939393; stroke:none;" d="M246 126L247 127L246 126z"/>
<path style="fill:#b3b3b3; stroke:none;" d="M112.667 127.333C112.222 127.778 113.278 127.722 113.333 127.667C113.778 127.222 112.722 127.278 112.667 127.333z"/>
<path style="fill:#5a5a5a; stroke:none;" d="M114.667 127.333C114.222 127.778 115.278 127.722 115.333 127.667C115.778 127.222 114.722 127.278 114.667 127.333z"/>
<path style="fill:#232323; stroke:none;" d="M116.667 127.333C116.222 127.778 117.278 127.722 117.333 127.667C117.778 127.222 116.722 127.278 116.667 127.333z"/>
<path style="fill:#2c2c2c; stroke:none;" d="M158.667 127.333C158.222 127.778 159.278 127.722 159.333 127.667C159.778 127.222 158.722 127.278 158.667 127.333z"/>
<path style="fill:#797979; stroke:none;" d="M160.667 127.333C160.222 127.778 161.278 127.722 161.333 127.667C161.778 127.222 160.722 127.278 160.667 127.333z"/>
<path style="fill:#adadad; stroke:none;" d="M162 127L163 128L162 127z"/>
<path style="fill:#d0d0d0; stroke:none;" d="M244 127L245 128L244 127z"/>
<path style="fill:#2f2f2f; stroke:none;" d="M245 127L246 128L245 127z"/>
<path style="fill:#2d2d2d; stroke:none;" d="M67 128L68 129L67 128z"/>
<path style="fill:#b6b6b6; stroke:none;" d="M123.667 128.333C123.222 128.778 124.278 128.722 124.333 128.667C124.778 128.222 123.722 128.278 123.667 128.333z"/>
<path style="fill:#7c7c7c; stroke:none;" d="M125 128C126.248 128.685 126.548 128.749 128 129C126.752 128.315 126.452 128.251 125 128z"/>
<path style="fill:#525252; stroke:none;" d="M128 128C129.248 128.685 129.548 128.749 131 129C129.752 128.315 129.452 128.251 128 128z"/>
<path style="fill:#2c2c2c; stroke:none;" d="M131 128C135.724 129.982 141.91 129 147 129C142.276 127.018 136.09 128 131 128z"/>
<path style="fill:#6f6f6f; stroke:none;" d="M147.667 128.333C147.222 128.778 148.278 128.722 148.333 128.667C148.778 128.222 147.722 128.278 147.667 128.333z"/>
<path style="fill:#898989; stroke:none;" d="M149 128C150.248 128.685 150.548 128.749 152 129C150.752 128.315 150.452 128.251 149 128z"/>
<path style="fill:#696969; stroke:none;" d="M243 128L244 129L243 128z"/>
<path style="fill:#4b4b4b; stroke:none;" d="M66.3333 129.667C66.2778 129.722 66.2222 130.778 66.6667 130.333C66.7222 130.278 66.7778 129.222 66.3333 129.667z"/>
<path style="fill:#d0d0d0; stroke:none;" d="M237 129L238 130L237 129z"/>
<path style="fill:#989898; stroke:none;" d="M241 129L242 130L241 129z"/>
<path style="fill:#2e2e2e; stroke:none;" d="M240 130L241 131L240 130z"/>
<path style="fill:#848484; stroke:none;" d="M69 131L70 132L69 131z"/>
<path style="fill:#484848; stroke:none;" d="M238 131L239 132L238 131z"/>
<path style="fill:#4f4f4f; stroke:none;" d="M71 132L72 133L71 132z"/>
<path style="fill:#b8b8b8; stroke:none;" d="M72 132L73 133L72 132z"/>
<path style="fill:#535353; stroke:none;" d="M236 132L237 133L236 132z"/>
<path style="fill:#4e4e4e; stroke:none;" d="M74 133L75 134L74 133z"/>
<path style="fill:#d3d3d3; stroke:none;" d="M75 133L76 134L75 133z"/>
<path style="fill:#797979; stroke:none;" d="M234 133L235 134L234 133z"/>
<path style="fill:#606060; stroke:none;" d="M77 134L78 135L77 134z"/>
<path style="fill:#777777; stroke:none;" d="M232 134L233 135L232 134z"/>
<path style="fill:#6c6c6c; stroke:none;" d="M80 135L81 136L80 135z"/>
<path style="fill:#bebebe; stroke:none;" d="M81 135L82 136L81 135z"/>
<path style="fill:#5f5f5f; stroke:none;" d="M230 135L231 136L230 135z"/>
<path style="fill:#3f3f3f; stroke:none;" d="M83 136L84 137L83 136z"/>
<path style="fill:#acacac; stroke:none;" d="M84 136L85 137L84 136z"/>
<path style="fill:#c8c8c8; stroke:none;" d="M227 136L228 137L227 136z"/>
<path style="fill:#3f3f3f; stroke:none;" d="M228 136L229 137L228 136z"/>
<path style="fill:#515151; stroke:none;" d="M86.6667 137.333C86.2222 137.778 87.2778 137.722 87.3333 137.667C87.7778 137.222 86.7222 137.278 86.6667 137.333z"/>
<path style="fill:#d4d4d4; stroke:none;" d="M88 137L89 138L88 137z"/>
<path style="fill:#989898; stroke:none;" d="M225 137L226 138L225 137z"/>
<path style="fill:#666666; stroke:none;" d="M91 138L92 139L91 138z"/>
<path style="fill:#cecece; stroke:none;" d="M92 138L93 139L92 138z"/>
<path style="fill:#d0d0d0; stroke:none;" d="M222 138L223 139L222 138z"/>
<path style="fill:#5a5a5a; stroke:none;" d="M223 138L224 139L223 138z"/>
<path style="fill:#616161; stroke:none;" d="M95 139L96 140L95 139z"/>
<path style="fill:#b3b3b3; stroke:none;" d="M96 139L97 140L96 139z"/>
<path style="fill:#979797; stroke:none;" d="M220 139L221 140L220 139z"/>
<path style="fill:#313131; stroke:none;" d="M99 140L100 141L99 140z"/>
<path style="fill:#737373; stroke:none;" d="M100 140L101 141L100 140z"/>
<path style="fill:#acacac; stroke:none;" d="M217 140L218 141L217 140z"/>
<path style="fill:#3b3b3b; stroke:none;" d="M218 140L219 141L218 140z"/>
<path style="fill:#191919; stroke:none;" d="M84.6667 141.333C84.2222 141.778 85.2778 141.722 85.3333 141.667C85.7778 141.222 84.7222 141.278 84.6667 141.333z"/>
<path style="fill:#474747; stroke:none;" d="M105 141L106 142L105 141z"/>
<path style="fill:#909090; stroke:none;" d="M106 141L107 142L106 141z"/>
<path style="fill:#b5b5b5; stroke:none;" d="M214 141L215 142L214 141z"/>
<path style="fill:#464646; stroke:none;" d="M215 141L216 142L215 141z"/>
<path style="fill:#373737; stroke:none;" d="M110.667 142.333C110.222 142.778 111.278 142.722 111.333 142.667C111.778 142.222 110.722 142.278 110.667 142.333z"/>
<path style="fill:#ababab; stroke:none;" d="M112.667 142.333C112.222 142.778 113.278 142.722 113.333 142.667C113.778 142.222 112.722 142.278 112.667 142.333z"/>
<path style="fill:#aaaaaa; stroke:none;" d="M211 142L212 143L211 142z"/>
<path style="fill:#343434; stroke:none;" d="M212 142L213 143L212 142z"/>
<path style="fill:#666666; stroke:none;" d="M118.667 143.333C118.222 143.778 119.278 143.722 119.333 143.667C119.778 143.222 118.722 143.278 118.667 143.333z"/>
<path style="fill:#a4a4a4; stroke:none;" d="M120.667 143.333C120.222 143.778 121.278 143.722 121.333 143.667C121.778 143.222 120.722 143.278 120.667 143.333z"/>
<path style="fill:#9e9e9e; stroke:none;" d="M208 143L209 144L208 143z"/>
<path style="fill:#3b3b3b; stroke:none;" d="M209 143L210 144L209 143z"/>
<path style="fill:#2d2d2d; stroke:none;" d="M128.667 144.333C128.222 144.778 129.278 144.722 129.333 144.667C129.778 144.222 128.722 144.278 128.667 144.333z"/>
<path style="fill:#5f5f5f; stroke:none;" d="M130 144C131.248 144.685 131.548 144.749 133 145C131.752 144.315 131.452 144.251 130 144z"/>
<path style="fill:#adadad; stroke:none;" d="M133 144L134 145L133 144z"/>
<path style="fill:#c8c8c8; stroke:none;" d="M204 144L205 145L204 144z"/>
<path style="fill:#6c6c6c; stroke:none;" d="M205 144L206 145L205 144z"/>
<path style="fill:#838383; stroke:none;" d="M201 145L202 146L201 145z"/>
<path style="fill:#c9c9c9; stroke:none;" d="M196 146L197 147L196 146z"/>
<path style="fill:#727272; stroke:none;" d="M197 146L198 147L197 146z"/>
<path style="fill:#ececec; stroke:none;" d="M173 147C175.052 147.874 176.747 147.953 179 148C176.948 147.126 175.253 147.047 173 147z"/>
<path style="fill:#818181; stroke:none;" d="M192 147L193 148L192 147z"/>
<path style="fill:#555555; stroke:none;" d="M193 147L194 148L193 147z"/>
<path style="fill:#8c8c8c; stroke:none;" d="M134 148L135 149L134 148z"/>
<path style="fill:#b4b4b4; stroke:none;" d="M186 148L187 149L186 148z"/>
<path style="fill:#6e6e6e; stroke:none;" d="M187 148L188 149L187 148z"/>
<path style="fill:#343434; stroke:none;" d="M188 148L189 149L188 148z"/>
<path style="fill:#373737; stroke:none;" d="M134.333 149.667C134.278 149.722 134.222 150.778 134.667 150.333C134.722 150.278 134.778 149.222 134.333 149.667z"/>
<path style="fill:#c2c2c2; stroke:none;" d="M179 149L180 150L179 149z"/>
<path style="fill:#8c8c8c; stroke:none;" d="M180 149L181 150L180 149z"/>
<path style="fill:#343434; stroke:none;" d="M181 149C182.248 149.685 182.548 149.749 184 150C182.752 149.315 182.452 149.251 181 149z"/>
<path style="fill:#b4b4b4; stroke:none;" d="M171 150L172 151L171 150z"/>
<path style="fill:#848484; stroke:none;" d="M172 150L173 151L172 150z"/>
<path style="fill:#323232; stroke:none;" d="M173 150C174.248 150.685 174.548 150.749 176 151C174.752 150.315 174.452 150.251 173 150z"/>
<path style="fill:#333333; stroke:none;" d="M138 151C139.248 151.685 139.548 151.749 141 152C139.752 151.315 139.452 151.251 138 151z"/>
<path style="fill:#5c5c5c; stroke:none;" d="M141 151C142.248 151.685 142.548 151.749 144 152C142.752 151.315 142.452 151.251 141 151z"/>
<path style="fill:#989898; stroke:none;" d="M144 151C147.959 152.661 152.737 152 157 152C153.041 150.339 148.263 151 144 151z"/>
<path style="fill:#666666; stroke:none;" d="M157 151C158.248 151.685 158.548 151.749 160 152C158.752 151.315 158.452 151.251 157 151z"/>
<path style="fill:#464646; stroke:none;" d="M160 151C161.248 151.685 161.548 151.749 163 152C161.752 151.315 161.452 151.251 160 151z"/>
<path style="fill:#1b1b1b; stroke:none;" d="M163.667 151.333C163.222 151.778 164.278 151.722 164.333 151.667C164.778 151.222 163.722 151.278 163.667 151.333z"/>
<path style="fill:#000000; stroke:none;" d="M4 154C9.43356 158.116 20.3741 156 27 156L86 156L312 156C302.317 158.862 290.076 157 280 157L215 157L4 157L4 159L314 159L314 154L4 154z"/>
</svg>
