<?xml version="1.0" standalone="yes"?>
<svg xmlns="http://www.w3.org/2000/svg" width="198" height="198">
<path style="fill:#000000; stroke:none;" d="M0 0L0 198L198 198L198 0L0 0z"/>
<path style="fill:#1b1b1b; stroke:none;" d="M90 56C91.2484 56.6848 91.5484 56.7488 93 57C91.7517 56.3152 91.4515 56.2512 90 56z"/>
<path style="fill:#3c3c3c; stroke:none;" d="M74 57L75 58L74 57z"/>
<path style="fill:#818181; stroke:none;" d="M75 57L76 58L75 57z"/>
<path style="fill:#c0c0c0; stroke:none;" d="M76 57L77 58L76 57z"/>
<path style="fill:#f7f7f7; stroke:none;" d="M60 60L62 64C50.4167 65.0113 37.2598 70.8621 28 77.7608C23.497 81.1157 20.5539 87.2806 15.8156 89.9722C13.009 91.5665 9.10433 90.9997 6 91C7.45827 93.6272 9.02942 97.2476 11.6088 98.9722C14.9227 101.188 21.1774 100 25 100C26.9098 85.8869 38.3595 78.8353 51 74.6705C73.8419 67.1446 99.9742 65.9664 123 73.3441C133.69 76.7695 155.686 86.3526 152.171 101C150.115 109.565 141.463 115.628 134 119.216C116.737 127.516 95.9387 129.663 77 127.83C71.7017 127.318 66.1719 126.356 61 125.102C58.2532 124.436 54.9418 122.814 52.0895 123.697C48.8279 124.706 46.7658 128.34 45 131C53.8791 133.888 62.7484 136.203 72 137.573C77.4398 138.378 82.8647 137.872 86 143C93.5752 141.197 101.315 142.565 109 141.83C123.29 140.465 138.07 137.043 151 130.741C158.718 126.979 166.205 121.893 171.468 115C174.17 111.46 175.25 105.527 179.214 103.179C183.15 100.847 189.591 102 194 102L194 98C189.616 98 183.127 99.1681 179.225 96.821C174.911 94.2265 173.528 86.9247 170.471 83.0039C165.698 76.883 158.848 72.6725 152 69.2485C124.147 55.3217 90.0628 54.3358 60 60z"/>
<path style="fill:#b6b6b6; stroke:none;" d="M107 57L108 58L107 57z"/>
<path style="fill:#707070; stroke:none;" d="M108 57L109 58L108 57z"/>
<path style="fill:#323232; stroke:none;" d="M109 57L110 58L109 57z"/>
<path style="fill:#707070; stroke:none;" d="M67 58L68 59L67 58z"/>
<path style="fill:#d3d3d3; stroke:none;" d="M68 58L69 59L68 58z"/>
<path style="fill:#b0b0b0; stroke:none;" d="M115 58L116 59L115 58z"/>
<path style="fill:#525252; stroke:none;" d="M116 58L117 59L116 58z"/>
<path style="fill:#656565; stroke:none;" d="M61 59L62 60L61 59z"/>
<path style="fill:#cacaca; stroke:none;" d="M62 59L63 60L62 59z"/>
<path style="fill:#bdbdbd; stroke:none;" d="M121 59L122 60L121 59z"/>
<path style="fill:#3a3a3a; stroke:none;" d="M122 59L123 60L122 59z"/>
<path style="fill:#8c8c8c; stroke:none;" d="M126 60L127 61L126 60z"/>
<path style="fill:#a7a7a7; stroke:none;" d="M130 61L131 62L130 61z"/>
<path style="fill:#858585; stroke:none;" d="M134 62L135 63L134 62z"/>
<path style="fill:#bebebe; stroke:none;" d="M61 63L62 64L61 63z"/>
<path style="fill:#a6a6a6; stroke:none;" d="M137 63L138 64L137 63z"/>
<path style="fill:#616161; stroke:none;" d="M57 64L58 65L57 64z"/>
<path style="fill:#959595; stroke:none;" d="M140 64L141 65L140 64z"/>
<path style="fill:#b6b6b6; stroke:none;" d="M54 65L55 66L54 65z"/>
<path style="fill:#5e5e5e; stroke:none;" d="M143 65L144 66L143 65z"/>
<path style="fill:#cecece; stroke:none;" d="M51 66L52 67L51 66M48 67L49 68L48 67z"/>
<path style="fill:#454545; stroke:none;" d="M148 67L149 68L148 67z"/>
<path style="fill:#bbbbbb; stroke:none;" d="M45 68L46 69L45 68z"/>
<path style="fill:#d9d9d9; stroke:none;" d="M86 68C88.6127 69.0977 91.1645 68.9928 94 69C91.3873 67.9023 88.8355 68.0072 86 68z"/>
<path style="fill:#696969; stroke:none;" d="M150 68L151 69L150 68z"/>
<path style="fill:#2b2b2b; stroke:none;" d="M42 69L43 70L42 69z"/>
<path style="fill:#c3c3c3; stroke:none;" d="M74 69L75 70L74 69z"/>
<path style="fill:#828282; stroke:none;" d="M75 69L76 70L75 69z"/>
<path style="fill:#434343; stroke:none;" d="M76 69L77 70L76 69z"/>
<path style="fill:#545454; stroke:none;" d="M104 69L105 70L104 69z"/>
<path style="fill:#939393; stroke:none;" d="M105 69L106 70L105 69z"/>
<path style="fill:#606060; stroke:none;" d="M152 69L153 70L152 69z"/>
<path style="fill:#626262; stroke:none;" d="M40 70L41 71L40 70z"/>
<path style="fill:#d0d0d0; stroke:none;" d="M67 70L68 71L67 70z"/>
<path style="fill:#454545; stroke:none;" d="M68 70L69 71L68 70z"/>
<path style="fill:#727272; stroke:none;" d="M111 70L112 71L111 70z"/>
<path style="fill:#565656; stroke:none;" d="M154 70L155 71L154 70z"/>
<path style="fill:#8d8d8d; stroke:none;" d="M38 71L39 72L38 71z"/>
<path style="fill:#bebebe; stroke:none;" d="M62 71L63 72L62 71z"/>
<path style="fill:#444444; stroke:none;" d="M63 71L64 72L63 71z"/>
<path style="fill:#8d8d8d; stroke:none;" d="M116 71L117 72L116 71z"/>
<path style="fill:#9a9a9a; stroke:none;" d="M36 72L37 73L36 72z"/>
<path style="fill:#838383; stroke:none;" d="M58 72L59 73L58 72z"/>
<path style="fill:#7b7b7b; stroke:none;" d="M120 72L121 73L120 72z"/>
<path style="fill:#474747; stroke:none;" d="M34 73L35 74L34 73z"/>
<path style="fill:#7d7d7d; stroke:none;" d="M54 73L55 74L54 73z"/>
<path style="fill:#3e3e3e; stroke:none;" d="M123 73L124 74L123 73z"/>
<path style="fill:#4d4d4d; stroke:none;" d="M159 73L160 74L159 73z"/>
<path style="fill:#636363; stroke:none;" d="M51 74L52 75L51 74z"/>
<path style="fill:#2d2d2d; stroke:none;" d="M126 74L127 75L126 74z"/>
<path style="fill:#afafaf; stroke:none;" d="M31 75L32 76L31 75z"/>
<path style="fill:#575757; stroke:none;" d="M48 75L49 76L48 75z"/>
<path style="fill:#484848; stroke:none;" d="M75 75L76 76L75 75z"/>
<path style="fill:#8b8b8b; stroke:none;" d="M76 75C79.6986 76.552 84.0172 76 88 76L110 76C106.301 74.448 101.983 75 98 75L76 75z"/>
<path style="fill:#707070; stroke:none;" d="M129 75L130 76L129 75z"/>
<path style="fill:#919191; stroke:none;" d="M45 76L46 77L45 76z"/>
<path style="fill:#6a6a6a; stroke:none;" d="M74 76L75 77L74 76z"/>
<path style="fill:#ffffff; stroke:none;" d="M75 76C84.7485 80.0907 99.7878 72.3051 108 80C111.685 79.4057 115.263 79.0289 119 79L119 81C114.763 81.3461 110.903 82.3207 107 84L106 89C110.725 85.7267 114.149 82.8086 120 82L120 78C115.034 77.9962 110.775 76.3979 105.961 76.054C95.7442 75.3244 85.2438 76 75 76z"/>
<path style="fill:#8c8c8c; stroke:none;" d="M163 76L164 77L163 76z"/>
<path style="fill:#707070; stroke:none;" d="M28 77L29 78L28 77z"/>
<path style="fill:#2e2e2e; stroke:none;" d="M43 77L44 78L43 77z"/>
<path style="fill:#f7f7f7; stroke:none;" d="M67 79L67 88C70.4192 87.4403 72.7086 85.0994 76.0147 84.3133C83.3367 82.5722 92.4818 84 100 84C96.1415 87.8564 90.937 91.4071 90 97C96.4328 97 104.345 95.9346 109.981 99.7276C112.68 101.544 115.339 104.61 113.338 107.892C110.71 112.202 103.598 113.708 99 114.535C84.7385 117.102 67.4216 112.683 56 104C47.5126 111.345 68.6708 120.496 75.0039 121.981C88.9115 125.242 109.866 125.093 121.985 116.351C129.395 111.005 129.731 101.369 121.957 96.1335C116.531 92.4796 110.316 92.0042 104 92C105.791 89.2494 106.854 87.2682 107 84C110.972 82.7301 114.861 81.5578 119 81L119 79C115.252 79.0079 111.614 78.9513 108 80C105.262 76.1243 100.353 77.0003 96 77C89.7583 76.9996 83.2057 76.4321 77 77.1289C73.5818 77.5127 70.4628 78.7798 67 79z"/>
<path style="fill:#9d9d9d; stroke:none;" d="M120 78L120 82C120.71 80.2405 120.71 79.7595 120 78z"/>
<path style="fill:#5a5a5a; stroke:none;" d="M37 80L38 81L37 80z"/>
<path style="fill:#555555; stroke:none;" d="M139 80L140 81L139 80z"/>
<path style="fill:#919191; stroke:none;" d="M34 82L35 83L34 82z"/>
<path style="fill:#adadad; stroke:none;" d="M116 82L117 83L116 82z"/>
<path style="fill:#717171; stroke:none;" d="M117 82L118 83L117 82z"/>
<path style="fill:#414141; stroke:none;" d="M118 82L119 83L118 82z"/>
<path style="fill:#3a3a3a; stroke:none;" d="M142 82L143 83L142 82z"/>
<path style="fill:#6e6e6e; stroke:none;" d="M112 83L113 84L112 83z"/>
<path style="fill:#cecece; stroke:none;" d="M73 84L74 85L73 84z"/>
<path style="fill:#6d6d6d; stroke:none;" d="M74 84L75 85L74 84z"/>
<path style="fill:#3a3a3a; stroke:none;" d="M75 84C81.6867 86.8058 91.7674 85 99 85C92.3133 82.1942 82.2326 84 75 84z"/>
<path style="fill:#0e0e0e; stroke:none;" d="M99 84L100 85L99 84z"/>
<path style="fill:#626262; stroke:none;" d="M171 84L172 85L171 84z"/>
<path style="fill:#848484; stroke:none;" d="M19 86L20 87L19 86z"/>
<path style="fill:#393939; stroke:none;" d="M29 87L30 88L29 87z"/>
<path style="fill:#616161; stroke:none;" d="M173 87L174 88L173 87z"/>
<path style="fill:#c0c0c0; stroke:none;" d="M28 88L29 89L28 88z"/>
<path style="fill:#727272; stroke:none;" d="M67 88C68.506 88.683 69.3148 88.8259 71 89C69.4939 88.317 68.6852 88.1741 67 88z"/>
<path style="fill:#8a8a8a; stroke:none;" d="M174 89L175 90L174 89z"/>
<path style="fill:#2c2c2c; stroke:none;" d="M27 90L28 91L27 90z"/>
<path style="fill:#4c4c4c; stroke:none;" d="M104 91C105.506 91.683 106.315 91.8259 108 92C106.494 91.317 105.685 91.1741 104 91z"/>
<path style="fill:#2f2f2f; stroke:none;" d="M175 91L176 92L175 91z"/>
<path style="fill:#909090; stroke:none;" d="M26 92L27 93L26 92z"/>
<path style="fill:#565656; stroke:none;" d="M89 92L89 97C89.8299 94.9695 89.8299 94.0305 89 92z"/>
<path style="fill:#878787; stroke:none;" d="M90.6667 92.3333C90.2222 92.7778 91.2778 92.7222 91.3333 92.6667C91.7778 92.2222 90.7222 92.2778 90.6667 92.3333z"/>
<path style="fill:#858585; stroke:none;" d="M7 93L8 94L7 93z"/>
<path style="fill:#515151; stroke:none;" d="M116 93L117 94L116 93z"/>
<path style="fill:#454545; stroke:none;" d="M176 94L177 95L176 94z"/>
<path style="fill:#c3c3c3; stroke:none;" d="M9 96L10 97L9 96z"/>
<path style="fill:#999999; stroke:none;" d="M25 96L25 100C25.7102 98.2405 25.7102 97.7595 25 96z"/>
<path style="fill:#737373; stroke:none;" d="M122 96L123 97L122 96z"/>
<path style="fill:#a1a1a1; stroke:none;" d="M152 96L153 97L152 96z"/>
<path style="fill:#d1d1d1; stroke:none;" d="M177 96L178 97L177 96z"/>
<path style="fill:#303030; stroke:none;" d="M103 97L104 98L103 97z"/>
<path style="fill:#9f9f9f; stroke:none;" d="M104 97L105 98L104 97z"/>
<path style="fill:#4e4e4e; stroke:none;" d="M152.333 97.6667C152.278 97.7222 152.222 98.7778 152.667 98.3333C152.722 98.2778 152.778 97.2222 152.333 97.6667z"/>
<path style="fill:#565656; stroke:none;" d="M179 97L180 98L179 97z"/>
<path style="fill:#c8c8c8; stroke:none;" d="M108 98L109 99L108 98z"/>
<path style="fill:#ababab; stroke:none;" d="M110 99L111 100L110 99z"/>
<path style="fill:#878787; stroke:none;" d="M152 99L153 100L152 99z"/>
<path style="fill:#dadada; stroke:none;" d="M193.333 99.6667C193.278 99.7223 193.222 100.778 193.667 100.333C193.722 100.278 193.778 99.2222 193.333 99.6667z"/>
<path style="fill:#989898; stroke:none;" d="M126 100L127 101L126 100z"/>
<path style="fill:#c6c6c6; stroke:none;" d="M152 100L153 101L152 100z"/>
<path style="fill:#bebebe; stroke:none;" d="M127 102L128 103L127 102z"/>
<path style="fill:#5d5d5d; stroke:none;" d="M179 102L180 103L179 102z"/>
<path style="fill:#626262; stroke:none;" d="M114 103L115 104L114 103z"/>
<path style="fill:#8f8f8f; stroke:none;" d="M177 103L178 104L177 103z"/>
<path style="fill:#525252; stroke:none;" d="M53 105L54 106L53 105z"/>
<path style="fill:#a2a2a2; stroke:none;" d="M57 105L58 106L57 105z"/>
<path style="fill:#5d5d5d; stroke:none;" d="M52 106L53 107L52 106z"/>
<path style="fill:#454545; stroke:none;" d="M51.3333 107.667C51.2778 107.722 51.2222 108.778 51.6667 108.333C51.7222 108.278 51.7778 107.222 51.3333 107.667z"/>
<path style="fill:#c4c4c4; stroke:none;" d="M60 107L61 108L60 107z"/>
<path style="fill:#7a7a7a; stroke:none;" d="M114 107L115 108L114 107z"/>
<path style="fill:#808080; stroke:none;" d="M149 107L150 108L149 107z"/>
<path style="fill:#838383; stroke:none;" d="M175 107L176 108L175 107z"/>
<path style="fill:#bbbbbb; stroke:none;" d="M62 108L63 109L62 108z"/>
<path style="fill:#585858; stroke:none;" d="M111 110L112 111L111 110z"/>
<path style="fill:#cecece; stroke:none;" d="M69 111L70 112L69 111z"/>
<path style="fill:#6a6a6a; stroke:none;" d="M109 111L110 112L109 111z"/>
<path style="fill:#7a7a7a; stroke:none;" d="M56 112L57 113L56 112z"/>
<path style="fill:#505050; stroke:none;" d="M73 112L74 113L73 112z"/>
<path style="fill:#707070; stroke:none;" d="M106 112L107 113L106 112z"/>
<path style="fill:#7f7f7f; stroke:none;" d="M77 113L78 114L77 113z"/>
<path style="fill:#858585; stroke:none;" d="M103 113L104 114L103 113z"/>
<path style="fill:#2d2d2d; stroke:none;" d="M125 113L126 114L125 113z"/>
<path style="fill:#5b5b5b; stroke:none;" d="M143 113L144 114L143 113z"/>
<path style="fill:#636363; stroke:none;" d="M172 113L173 114L172 113z"/>
<path style="fill:#bcbcbc; stroke:none;" d="M83 114L84 115L83 114z"/>
<path style="fill:#686868; stroke:none;" d="M84 114L85 115L84 114z"/>
<path style="fill:#525252; stroke:none;" d="M98 114L99 115L98 114z"/>
<path style="fill:#9d9d9d; stroke:none;" d="M99 114L100 115L99 114z"/>
<path style="fill:#464646; stroke:none;" d="M124 114L125 115L124 114z"/>
<path style="fill:#cfcfcf; stroke:none;" d="M142 114L143 115L142 114z"/>
<path style="fill:#5d5d5d; stroke:none;" d="M61 115L62 116L61 115z"/>
<path style="fill:#474747; stroke:none;" d="M63 116L64 117L63 116z"/>
<path style="fill:#c2c2c2; stroke:none;" d="M139 116L140 117L139 116z"/>
<path style="fill:#818181; stroke:none;" d="M137 117L138 118L137 117z"/>
<path style="fill:#3e3e3e; stroke:none;" d="M169 117L170 118L169 117z"/>
<path style="fill:#525252; stroke:none;" d="M68 118L69 119L68 118z"/>
<path style="fill:#5c5c5c; stroke:none;" d="M135 118L136 119L135 118z"/>
<path style="fill:#878787; stroke:none;" d="M168 118L169 119L168 118z"/>
<path style="fill:#7f7f7f; stroke:none;" d="M115 119L116 120L115 119z"/>
<path style="fill:#656565; stroke:none;" d="M133 119L134 120L133 119z"/>
<path style="fill:#444444; stroke:none;" d="M167 119L168 120L167 119z"/>
<path style="fill:#616161; stroke:none;" d="M69 120L70 121L69 120z"/>
<path style="fill:#979797; stroke:none;" d="M112 120L113 121L112 120z"/>
<path style="fill:#959595; stroke:none;" d="M131 120L132 121L131 120z"/>
<path style="fill:#3e3e3e; stroke:none;" d="M166 120L167 121L166 120z"/>
<path style="fill:#656565; stroke:none;" d="M72 121L73 122L72 121z"/>
<path style="fill:#626262; stroke:none;" d="M109 121L110 122L109 121z"/>
<path style="fill:#555555; stroke:none;" d="M76 122L77 123L76 122z"/>
<path style="fill:#a8a8a8; stroke:none;" d="M77 122L78 123L77 122z"/>
<path style="fill:#cdcdcd; stroke:none;" d="M104 122L105 123L104 122z"/>
<path style="fill:#3a3a3a; stroke:none;" d="M105 122L106 123L105 122z"/>
<path style="fill:#c7c7c7; stroke:none;" d="M126 122L127 123L126 122z"/>
<path style="fill:#414141; stroke:none;" d="M55 123L56 124L55 123z"/>
<path style="fill:#373737; stroke:none;" d="M83 123L84 124L83 123z"/>
<path style="fill:#717171; stroke:none;" d="M84 123L85 124L84 123z"/>
<path style="fill:#9f9f9f; stroke:none;" d="M85 123L86 124L85 123z"/>
<path style="fill:#a5a5a5; stroke:none;" d="M94.6667 123.333C94.2222 123.778 95.2778 123.722 95.3333 123.667C95.7778 123.222 94.7222 123.278 94.6667 123.333z"/>
<path style="fill:#757575; stroke:none;" d="M96 123L97 124L96 123z"/>
<path style="fill:#b8b8b8; stroke:none;" d="M123 123L124 124L123 123z"/>
<path style="fill:#c0c0c0; stroke:none;" d="M162 123L163 124L162 123z"/>
<path style="fill:#b3b3b3; stroke:none;" d="M58 124L59 125L58 124z"/>
<path style="fill:#656565; stroke:none;" d="M119 124L120 125L119 124z"/>
<path style="fill:#4d4d4d; stroke:none;" d="M161 124L162 125L161 124z"/>
<path style="fill:#cccccc; stroke:none;" d="M62 125L63 126L62 125z"/>
<path style="fill:#515151; stroke:none;" d="M63 125L64 126L63 125z"/>
<path style="fill:#7f7f7f; stroke:none;" d="M115 125L116 126L115 125z"/>
<path style="fill:#c8c8c8; stroke:none;" d="M48 126L49 127L48 126z"/>
<path style="fill:#939393; stroke:none;" d="M68 126L69 127L68 126z"/>
<path style="fill:#2e2e2e; stroke:none;" d="M69 126L70 127L69 126z"/>
<path style="fill:#717171; stroke:none;" d="M110 126L111 127L110 126z"/>
<path style="fill:#6e6e6e; stroke:none;" d="M158 126L159 127L158 126z"/>
<path style="fill:#b6b6b6; stroke:none;" d="M47 127L48 128L47 127z"/>
<path style="fill:#cbcbcb; stroke:none;" d="M74 127L75 128L74 127z"/>
<path style="fill:#8b8b8b; stroke:none;" d="M75 127L76 128L75 127z"/>
<path style="fill:#535353; stroke:none;" d="M76 127L77 128L76 127z"/>
<path style="fill:#393939; stroke:none;" d="M102 127L103 128L102 127z"/>
<path style="fill:#8e8e8e; stroke:none;" d="M103 127L104 128L103 127z"/>
<path style="fill:#c2c2c2; stroke:none;" d="M104 127L105 128L104 127z"/>
<path style="fill:#696969; stroke:none;" d="M46 128L47 129L46 128z"/>
<path style="fill:#5c5c5c; stroke:none;" d="M45 129L46 130L45 129z"/>
<path style="fill:#313131; stroke:none;" d="M151 130L152 131L151 130z"/>
<path style="fill:#5d5d5d; stroke:none;" d="M49 132L50 133L49 132z"/>
<path style="fill:#454545; stroke:none;" d="M52 133L53 134L52 133z"/>
<path style="fill:#868686; stroke:none;" d="M144 133L145 134L144 133z"/>
<path style="fill:#a3a3a3; stroke:none;" d="M56 134L57 135L56 134z"/>
<path style="fill:#858585; stroke:none;" d="M60 135L61 136L60 135z"/>
<path style="fill:#3b3b3b; stroke:none;" d="M64 136L65 137L64 136z"/>
<path style="fill:#b9b9b9; stroke:none;" d="M65 136L66 137L65 136z"/>
<path style="fill:#3d3d3d; stroke:none;" d="M136 136L137 137L136 136z"/>
<path style="fill:#5e5e5e; stroke:none;" d="M70 137L71 138L70 137z"/>
<path style="fill:#b8b8b8; stroke:none;" d="M71 137L72 138L71 137z"/>
<path style="fill:#7e7e7e; stroke:none;" d="M132 137L133 138L132 137z"/>
<path style="fill:#484848; stroke:none;" d="M78 138L79 139L78 138z"/>
<path style="fill:#828282; stroke:none;" d="M79 138L80 139L79 138z"/>
<path style="fill:#8b8b8b; stroke:none;" d="M128 138L129 139L128 138z"/>
<path style="fill:#bababa; stroke:none;" d="M123 139L124 140L123 139z"/>
<path style="fill:#464646; stroke:none;" d="M124 139L125 140L124 139z"/>
<path style="fill:#a6a6a6; stroke:none;" d="M118 140L119 141L118 140z"/>
<path style="fill:#373737; stroke:none;" d="M119 140L120 141L119 140z"/>
<path style="fill:#959595; stroke:none;" d="M111 141L112 142L111 141z"/>
<path style="fill:#4a4a4a; stroke:none;" d="M112 141L113 142L112 141z"/>
<path style="fill:#dbdbdb; stroke:none;" d="M87 142C90.1633 143.327 93.5856 143 97 143C93.8367 141.673 90.4144 142 87 142z"/>
<path style="fill:#acacac; stroke:none;" d="M97 142C98.2484 142.685 98.5484 142.749 100 143C98.7517 142.315 98.4516 142.251 97 142z"/>
<path style="fill:#505050; stroke:none;" d="M100 142C101.248 142.685 101.548 142.749 103 143C101.752 142.315 101.452 142.251 100 142z"/>
</svg>
