<?xml version="1.0" standalone="yes"?>
<svg xmlns="http://www.w3.org/2000/svg" width="250" height="199">
<path style="fill:#000000; stroke:none;" d="M0 0L0 199L54 199C60.5657 199 70.7555 200.923 76.8711 198.397C81.3002 196.567 85.2641 190.247 87 186L89 187C93.1396 182.271 98.4666 176.719 101 171C103.996 171.446 106.1 170.902 109 170C110.88 172.474 112.952 172.723 116 173C114.752 172.315 114.452 172.251 113 172C117.964 170.32 122.789 170.003 128 170C126.521 170.986 126.797 171 125 171C127.907 172.022 130.874 170.62 134 171C130.492 166.986 120.06 169 115 169C110.615 169 105.283 169.79 101.09 168.298C97.1012 166.879 94.3874 163.993 90 163.304C82.4719 162.122 70.8827 163.306 64.3179 158.825C61.7328 157.06 62.0326 153.756 62 151C72.9561 151.091 84.0646 153.79 95 154.83C106.564 155.931 118.493 154.908 130 154L130 160L167 160C167 155.745 165.741 149.026 168.028 145.263C171.763 139.115 181.458 137.153 186 131C182.107 132.158 179.335 134.983 175.999 137.254C172.123 139.893 167.503 141.312 166 146C164.029 138.283 164.996 128.881 166 121C159.099 122.113 146.82 124.41 141 120C147.568 121.621 151.548 118.715 152 112L157 112C158.76 106.505 165.108 97.6609 170.789 95.5941C172.676 94.9079 175.006 95.4568 177 95L177 97L179 96C178.782 97.6865 178.776 98.3161 179 100C180.607 98.9957 181.035 98.8035 183 99C175.056 88.301 155.961 82.2761 143 82C146.173 79.0814 149.533 76.5535 153 74C145.121 70.6938 132.534 73 124 73C117.149 73 108.643 71.6508 102 73.4329C97.248 74.7077 93.9711 78.6662 89 79.6852C74.0937 82.7408 60.2786 84.4202 46 90.2006C37.3786 93.6908 28.5891 98.5807 24 107C21.9672 105.72 19.0059 104.256 18.1157 101.826C16.3506 97.0071 24.8693 91.4218 28 89.0401C37.9833 81.4456 48.9613 79.2862 60 74.1998C63.3409 72.6605 65.7411 69.8015 69 68.1775C77.8871 63.7487 91.305 64.2229 101 63.9853C113.361 63.6825 125.613 62.765 138 64.2863C151.672 65.9653 164.604 70.2276 178 73L175 70C182.728 67.5263 185.35 59.8337 192 56L192 52C196.404 50.6337 198.362 46.8311 201.282 43.4637C205.25 38.8898 210.199 35.1086 214.151 30.5455C216.628 27.6859 217.203 25.1947 221 24C224.171 14.0986 234.866 10.1345 237 0L0 0z"/>
<path style="fill:#010101; stroke:none;" d="M221 24C216.684 24.7466 216.238 27.5727 213.447 30.5455C209.54 34.7073 205.124 38.4506 201.282 42.7006C198.227 46.0808 196.136 49.9008 192 52L192 56C185.095 58.4153 181.902 66.8292 175 70C180.244 75.8305 188.25 77.7001 195 81.3225C203.561 85.917 211.123 92.286 217 100L220 99L208 86C203.989 85.3057 200.812 82.4453 197 81L199 80C194.8 78.068 190.898 77.989 188 74L191 75L192 68C203.17 64.535 206.055 49.0482 216 44L216 40L220 40C221.154 37.7511 221.751 37.1535 224 36L224 32C228.337 30.431 230.377 25.8072 235 24L236 16C242.97 14.8949 249.534 6.92393 250 0C246.619 0 241.525 -0.936127 238.43 0.603394C235.952 1.83588 235.542 5.29655 233.741 7.24692C228.825 12.5696 222.482 16.3672 221 24z"/>
<path style="fill:#020202; stroke:none;" d="M248 5C245.59 9.75555 241.197 14.5327 236 16C235.499 18.6858 235.117 21.27 235 24C229.67 25.2787 228.292 29.4295 224 32L224 36C221.374 36.8387 220.839 37.3736 220 40L216 40L216 44C211.522 45.3892 209.5 49.2201 206.848 52.8858C202.978 58.2353 197.915 64.9986 192 68L191 75C189.521 74.0143 189.797 74 188 74C194.124 85.4273 207.434 72.4007 208 64L212 64C213.154 61.7511 213.751 61.1535 216 60L216 56L220 56C221.154 53.7511 221.751 53.1535 224 52L224 48C229.878 45.9439 236.107 38.1009 237 32C241.754 30.5837 243.9 26.3638 248 24C249.46 17.4482 250 11.7883 250 5L248 5z"/>
<path style="fill:#030303; stroke:none;" d="M248 20L248 24C243.668 25.5151 241.215 29.9552 237 32C235.411 38.1092 229.433 44.8681 224 48L224 52C221.374 52.8387 220.839 53.3735 220 56L216 56L216 60C213.374 60.8387 212.839 61.3735 212 64L208 64C207.123 70.5405 200.516 75.3943 197 81L207 87C209.566 82.9844 211.734 78.2739 216 76L216 72L220 72C221.154 69.7511 221.751 69.1535 224 68C227.268 56.294 241.821 51.9951 244 40L248 40C249.533 33.124 250 27.1181 250 20L248 20z"/>
<path style="fill:#040404; stroke:none;" d="M248 36L248 40L244 40C240.588 51.4568 225.909 55.9033 224 68C221.374 68.8387 220.839 69.3735 220 72L216 72L216 76C212.431 77.149 207.482 82.5232 208.696 86.7554C209.279 88.7866 211.523 90.5573 212.866 92.1096C214.984 94.5583 217.415 97.2984 220.999 97.0031C229.208 96.3267 233.573 83.8494 240 80L240 76L248 72C250.644 60.1358 250 48.2099 250 36L248 36z"/>
<path style="fill:#454545; stroke:none;" d="M106.667 63.3333C106.222 63.7778 107.278 63.7223 107.333 63.6667C107.778 63.2222 106.722 63.2778 106.667 63.3333z"/>
<path style="fill:#636363; stroke:none;" d="M108 63C111.697 64.5515 116.017 64 120 64C116.303 62.4485 111.983 63 108 63z"/>
<path style="fill:#424242; stroke:none;" d="M120 63C121.248 63.6848 121.548 63.7488 123 64C121.752 63.3152 121.452 63.2512 120 63z"/>
<path style="fill:#7a7a7a; stroke:none;" d="M88.6667 64.3333C88.2222 64.7778 89.2778 64.7222 89.3333 64.6667C89.7778 64.2222 88.7222 64.2778 88.6667 64.3333z"/>
<path style="fill:#d4d4d4; stroke:none;" d="M90.6667 64.3333C90.2222 64.7778 91.2778 64.7222 91.3333 64.6667C91.7778 64.2222 90.7222 64.2778 90.6667 64.3333z"/>
<path style="fill:#f9f9f9; stroke:none;" d="M24 107C35.8908 91.4231 55.5525 85.5285 74 81.6651C85.1635 79.3272 98.9883 80.6679 104 68C100.382 66.3098 96.9679 65.4828 93 66L93 64C85.557 65.7769 77.3388 65.3487 70.0394 67.5718C66.0966 68.7726 63.6993 72.4742 59.9961 74.1998C50.7473 78.5098 40.801 80.2236 32 85.8102C28.002 88.348 16.211 95.8568 17.7477 101.7C18.4735 104.459 21.7227 105.852 24 107z"/>
<path style="fill:#ffffff; stroke:none;" d="M93 66C96.7699 66.2347 100.376 66.9276 104 68L102 72L154 72C151.108 75.2563 147.591 77.5567 144 80C148.313 83.0767 154.005 83.5853 159 85.1782C173.226 89.7153 198.64 103.29 192.174 122C189.46 129.855 182.77 135.145 176 139.456C173.525 141.032 169.759 142.157 168.028 144.637C165.413 148.383 167 156.596 167 161L130 161L130 154C106.863 158.298 85.9006 151.986 63 151L63 159C72.2808 160.8 83.0743 160.877 92 163.513C95.9853 164.69 98.8183 168.031 103 168.772C111.859 170.343 122.132 169.014 131 168.17C148.842 166.472 166.054 165.015 183 158.385C194.209 153.999 204.52 147.652 212.91 138.961C217.767 133.93 220.609 125.269 227.004 122.028C231.637 119.679 238.925 121 244 121L244 114C238.849 114 230.798 115.505 226.21 112.821C221.926 110.315 220.143 103.955 217.477 100.004C213.46 94.0507 207.988 88.9985 202 85.0795C180.574 71.0563 151.425 64.0016 126 64L103 64C99.4836 64.0002 95.4348 63.2137 93 66z"/>
<path style="fill:#b1b1b1; stroke:none;" d="M136.667 64.3333C136.222 64.7778 137.278 64.7222 137.333 64.6667C137.778 64.2222 136.722 64.2777 136.667 64.3333z"/>
<path style="fill:#707070; stroke:none;" d="M138 64L139 65L138 64z"/>
<path style="fill:#3e3e3e; stroke:none;" d="M139 64L140 65L139 64z"/>
<path style="fill:#3c3c3c; stroke:none;" d="M81 65L82 66L81 65z"/>
<path style="fill:#8d8d8d; stroke:none;" d="M82 65L83 66L82 65z"/>
<path style="fill:#c6c6c6; stroke:none;" d="M83 65L84 66L83 65z"/>
<path style="fill:#a8a8a8; stroke:none;" d="M144 65L145 66L144 65z"/>
<path style="fill:#2c2c2c; stroke:none;" d="M145 65L146 66L145 65z"/>
<path style="fill:#969696; stroke:none;" d="M76 66L77 67L76 66z"/>
<path style="fill:#cfcfcf; stroke:none;" d="M77 66L78 67L77 66z"/>
<path style="fill:#d2d2d2; stroke:none;" d="M149 66L150 67L149 66z"/>
<path style="fill:#3e3e3e; stroke:none;" d="M150 66L151 67L150 66z"/>
<path style="fill:#848484; stroke:none;" d="M69 67L70 68L69 67z"/>
<path style="fill:#b6b6b6; stroke:none;" d="M156 67L157 68L156 67z"/>
<path style="fill:#696969; stroke:none;" d="M160 68L161 69L160 68z"/>
<path style="fill:#060606; stroke:none;" d="M248 68L248 72C244.728 72.548 242.862 74.5046 240 76L240 80C231.287 83.1518 228.577 96.9118 218 97C218.598 98.1954 218.466 97.9774 220 99C217.798 101.382 219.871 104.359 221.263 106.999C226.066 116.108 235.066 114 244 114L244 121C236.981 121 226.791 118.776 223 126C229.266 123.944 235.752 119.267 242 124C244.639 121.548 246.595 118.569 247 115C251.583 114.018 250 107.88 250 104L250 68L248 68z"/>
<path style="fill:#676767; stroke:none;" d="M165 69L166 70L165 69z"/>
<path style="fill:#b8b8b8; stroke:none;" d="M65 70L66 71L65 70z"/>
<path style="fill:#949494; stroke:none;" d="M168 70L169 71L168 70z"/>
<path style="fill:#aeaeae; stroke:none;" d="M64 71L65 72L64 71z"/>
<path style="fill:#7c7c7c; stroke:none;" d="M171 71L172 72L171 71z"/>
<path style="fill:#7e7e7e; stroke:none;" d="M63 72L64 73L63 72z"/>
<path style="fill:#e8e8e8; stroke:none;" d="M102 72C106.969 74.0851 113.65 73 119 73L153 73C148.031 70.9149 141.35 72 136 72L102 72z"/>
<path style="fill:#c9c9c9; stroke:none;" d="M153.333 72.6667C153.278 72.7223 153.222 73.7778 153.667 73.3333C153.722 73.2778 153.778 72.2222 153.333 72.6667z"/>
<path style="fill:#cbcbcb; stroke:none;" d="M174 72L175 73L174 72z"/>
<path style="fill:#333333; stroke:none;" d="M175 72L176 73L175 72z"/>
<path style="fill:#606060; stroke:none;" d="M62 73L63 74L62 73z"/>
<path style="fill:#5d5d5d; stroke:none;" d="M177 73L178 74L177 73z"/>
<path style="fill:#a1a1a1; stroke:none;" d="M59 74L60 75L59 74z"/>
<path style="fill:#adadad; stroke:none;" d="M180 74L181 75L180 74z"/>
<path style="fill:#cecece; stroke:none;" d="M56 75L57 76L56 75z"/>
<path style="fill:#9a9a9a; stroke:none;" d="M150 75L151 76L150 75z"/>
<path style="fill:#909090; stroke:none;" d="M182 75L183 76L182 75z"/>
<path style="fill:#575757; stroke:none;" d="M53 76L54 77L53 76z"/>
<path style="fill:#fcfcfc; stroke:none;" d="M92 84C96.1253 82.609 99.0195 79.4477 103 77.8573C106.92 76.2911 111.857 77 116 77C114.55 78.6076 113.949 79.0643 112 80L112 84C104.993 86.1738 103.755 94.7993 96 96C95.3198 101.076 92.5464 104.688 88 107C88 108.797 88.0143 108.521 89 110C83.4077 111.331 77.7168 111 72 111C75.9586 112.661 80.7396 112 85 112C89.2933 112 94.9082 113.11 99 111.741C104.549 109.883 109.549 104.42 114.09 100.845C124.3 92.8059 134.448 84.5855 145 77C140.28 75.0194 134.08 76 129 76C116.056 76 101.088 72.8372 92 84z"/>
<path style="fill:#4b4b4b; stroke:none;" d="M145 76L146 77L145 76z"/>
<path style="fill:#858585; stroke:none;" d="M184 76L185 77L184 76z"/>
<path style="fill:#515151; stroke:none;" d="M49 77L50 78L49 77z"/>
<path style="fill:#7f7f7f; stroke:none;" d="M95 77L96 78L95 77z"/>
<path style="fill:#6f6f6f; stroke:none;" d="M99 77L100 78L99 77z"/>
<path style="fill:#fbfbfb; stroke:none;" d="M51 114L98 114C92.0887 109.522 79.2512 112 72 112C77.5836 110.35 83.4164 111.65 89 110L88 107C93.133 105.368 95.6485 101.221 96 96C104.08 95.3888 105.43 87.3351 112 84L112 80C114.297 79.3264 114.774 79.0347 116 77C111.861 77 107.002 76.3191 103 77.5139C99.59 78.5319 97.0646 81.2092 94 82.8904C85.0703 87.7894 77.1509 93.7095 69 99.8704C63.0339 104.38 55.775 108.219 51 114z"/>
<path style="fill:#373737; stroke:none;" d="M147 77L148 78L147 77z"/>
<path style="fill:#707070; stroke:none;" d="M187 77L188 78L187 77z"/>
<path style="fill:#737373; stroke:none;" d="M47 78L48 79L47 78z"/>
<path style="fill:#7c7c7c; stroke:none;" d="M142 78L143 79L142 78z"/>
<path style="fill:#bbbbbb; stroke:none;" d="M44 79L45 80L44 79z"/>
<path style="fill:#878787; stroke:none;" d="M88.6667 79.3333C88.2222 79.7778 89.2778 79.7222 89.3333 79.6667C89.7778 79.2222 88.7222 79.2778 88.6667 79.3333z"/>
<path style="fill:#4f4f4f; stroke:none;" d="M90 79L91 80L90 79z"/>
<path style="fill:#4b4b4b; stroke:none;" d="M96 79L97 80L96 79z"/>
<path style="fill:#939393; stroke:none;" d="M42 80L43 81L42 80z"/>
<path style="fill:#d2d2d2; stroke:none;" d="M81 80L82 81L81 80z"/>
<path style="fill:#8b8b8b; stroke:none;" d="M82 80L83 81L82 80z"/>
<path style="fill:#4d4d4d; stroke:none;" d="M83 80L84 81L83 80z"/>
<path style="fill:#c3c3c3; stroke:none;" d="M193 80L194 81L193 80z"/>
<path style="fill:#494949; stroke:none;" d="M39 81L40 82L39 81z"/>
<path style="fill:#9b9b9b; stroke:none;" d="M74 81L75 82L74 81z"/>
<path style="fill:#4d4d4d; stroke:none;" d="M75 81L76 82L75 81z"/>
<path style="fill:#313131; stroke:none;" d="M93 81L94 82L93 81z"/>
<path style="fill:#4f4f4f; stroke:none;" d="M138 81L139 82L138 81z"/>
<path style="fill:#444444; stroke:none;" d="M143.667 81.3333C143.222 81.7777 144.278 81.7223 144.333 81.6667C144.778 81.2222 143.722 81.2778 143.667 81.3333z"/>
<path style="fill:#b6b6b6; stroke:none;" d="M145 81L146 82L145 81z"/>
<path style="fill:#acacac; stroke:none;" d="M38 82L39 83L38 82z"/>
<path style="fill:#8c8c8c; stroke:none;" d="M70 82L71 83L70 82z"/>
<path style="fill:#909090; stroke:none;" d="M137 82L138 83L137 82z"/>
<path style="fill:#888888; stroke:none;" d="M149 82L150 83L149 82z"/>
<path style="fill:#595959; stroke:none;" d="M197 82L198 83L197 82z"/>
<path style="fill:#353535; stroke:none;" d="M36 83L37 84L36 83z"/>
<path style="fill:#8b8b8b; stroke:none;" d="M66 83L67 84L66 83z"/>
<path style="fill:#838383; stroke:none;" d="M91 83L92 84L91 83z"/>
<path style="fill:#353535; stroke:none;" d="M136 83L137 84L136 83z"/>
<path style="fill:#6c6c6c; stroke:none;" d="M152 83L153 84L152 83z"/>
<path style="fill:#a1a1a1; stroke:none;" d="M61 84L62 85L61 84z"/>
<path style="fill:#bebebe; stroke:none;" d="M157 84L158 85L157 84z"/>
<path style="fill:#585858; stroke:none;" d="M88 85L89 86L88 85z"/>
<path style="fill:#9d9d9d; stroke:none;" d="M133 85L134 86L133 85z"/>
<path style="fill:#c7c7c7; stroke:none;" d="M54 86L55 87L54 86z"/>
<path style="fill:#929292; stroke:none;" d="M163 86L164 87L163 86z"/>
<path style="fill:#5b5b5b; stroke:none;" d="M29 87L30 88L29 87z"/>
<path style="fill:#858585; stroke:none;" d="M52 87L53 88L52 87z"/>
<path style="fill:#878787; stroke:none;" d="M165 87L166 88L165 87z"/>
<path style="fill:#3f3f3f; stroke:none;" d="M28 88L29 89L28 88z"/>
<path style="fill:#575757; stroke:none;" d="M50 88L51 89L50 88z"/>
<path style="fill:#aaaaaa; stroke:none;" d="M167 88L168 89L167 88z"/>
<path style="fill:#2e2e2e; stroke:none;" d="M47 89L48 90L47 89z"/>
<path style="fill:#c5c5c5; stroke:none;" d="M83 89L84 90L83 89z"/>
<path style="fill:#484848; stroke:none;" d="M45 90L46 91L45 90z"/>
<path style="fill:#4f4f4f; stroke:none;" d="M127 90L128 91L127 90z"/>
<path style="fill:#717171; stroke:none;" d="M24 91L25 92L24 91z"/>
<path style="fill:#797979; stroke:none;" d="M42 91L43 92L42 91z"/>
<path style="fill:#ababab; stroke:none;" d="M80 91L81 92L80 91z"/>
<path style="fill:#585858; stroke:none;" d="M125 91L126 92L125 91z"/>
<path style="fill:#9f9f9f; stroke:none;" d="M23 92L24 93L23 92z"/>
<path style="fill:#b7b7b7; stroke:none;" d="M124 92L125 93L124 92z"/>
<path style="fill:#7d7d7d; stroke:none;" d="M175 92L176 93L175 92z"/>
<path style="fill:#b8b8b8; stroke:none;" d="M22 93L23 94L22 93z"/>
<path style="fill:#5d5d5d; stroke:none;" d="M123 93L124 94L123 93z"/>
<path style="fill:#d1d1d1; stroke:none;" d="M211 93L212 94L211 93z"/>
<path style="fill:#cccccc; stroke:none;" d="M21 94L22 95L21 94z"/>
<path style="fill:#030303; stroke:none;" d="M157 112L152 112C151.127 118.506 147.316 120.727 141 120C143.103 122.407 145.894 121.994 149 122C154.612 122.011 160.57 122.576 166 121C164.22 129.079 165.102 137.768 165 146C172.786 137.35 188.563 134.055 192.2 122C194.103 115.694 192.346 109.347 188.652 104.094C186.147 100.531 183.208 97.7881 179 100L179 96C177.339 96.2076 177.46 96.4954 177 95C174.809 95.2007 172.121 94.5203 170.076 95.3873C164.464 97.7678 158.125 106.208 157 112z"/>
<path style="fill:#a0a0a0; stroke:none;" d="M120 95L121 96L120 95z"/>
<path style="fill:#a5a5a5; stroke:none;" d="M19 96L20 97L19 96z"/>
<path style="fill:#434343; stroke:none;" d="M73 96L74 97L73 96z"/>
<path style="fill:#343434; stroke:none;" d="M181 96L182 97L181 96z"/>
<path style="fill:#696969; stroke:none;" d="M18 97L19 98L18 97z"/>
<path style="fill:#cdcdcd; stroke:none;" d="M32 97L33 98L32 97z"/>
<path style="fill:#b5b5b5; stroke:none;" d="M72 97L73 98L72 97z"/>
<path style="fill:#959595; stroke:none;" d="M182 97L183 98L182 97z"/>
<path style="fill:#cecece; stroke:none;" d="M215 97L216 98L215 97z"/>
<path style="fill:#444444; stroke:none;" d="M183 98L184 99L183 98z"/>
<path style="fill:#929292; stroke:none;" d="M69 99L70 100L69 99z"/>
<path style="fill:#e3e3e3; stroke:none;" d="M72.3333 99.6667C72.2778 99.7222 72.2223 100.778 72.6667 100.333C72.7222 100.278 72.7778 99.2222 72.3333 99.6667z"/>
<path style="fill:#b3b3b3; stroke:none;" d="M16.3333 100.667C16.2778 100.722 16.2222 101.778 16.6667 101.333C16.7222 101.278 16.7778 100.222 16.3333 100.667z"/>
<path style="fill:#656565; stroke:none;" d="M68 100L69 101L68 100z"/>
<path style="fill:#525252; stroke:none;" d="M114 100L115 101L114 100z"/>
<path style="fill:#343434; stroke:none;" d="M185 100L186 101L185 100z"/>
<path style="fill:#818181; stroke:none;" d="M66 101L67 102L66 101z"/>
<path style="fill:#c5c5c5; stroke:none;" d="M218 101L219 102L218 101z"/>
<path style="fill:#454545; stroke:none;" d="M65 102L66 103L65 102z"/>
<path style="fill:#b3b3b3; stroke:none;" d="M111 102L112 103L111 102z"/>
<path style="fill:#a7a7a7; stroke:none;" d="M187 102L188 103L187 102z"/>
<path style="fill:#ababab; stroke:none;" d="M18 103L19 104L18 103z"/>
<path style="fill:#777777; stroke:none;" d="M26 103L27 104L26 103z"/>
<path style="fill:#b8b8b8; stroke:none;" d="M64 103L65 104L64 103z"/>
<path style="fill:#454545; stroke:none;" d="M219 103L220 104L219 103z"/>
<path style="fill:#333333; stroke:none;" d="M62 104L63 105L62 104z"/>
<path style="fill:#9e9e9e; stroke:none;" d="M61 105L62 106L61 105M189 105L190 106L189 105z"/>
<path style="fill:#828282; stroke:none;" d="M22 106L23 107L22 106z"/>
<path style="fill:#2b2b2b; stroke:none;" d="M106 106L107 107L106 106z"/>
<path style="fill:#b3b3b3; stroke:none;" d="M190 106L191 107L190 106z"/>
<path style="fill:#858585; stroke:none;" d="M105 107L106 108L105 107z"/>
<path style="fill:#868686; stroke:none;" d="M221 107L222 108L221 107z"/>
<path style="fill:#4e4e4e; stroke:none;" d="M57 108L58 109L57 108z"/>
<path style="fill:#b1b1b1; stroke:none;" d="M191 108L192 109L191 108z"/>
<path style="fill:#3b3b3b; stroke:none;" d="M54 110L55 111L54 110z"/>
<path style="fill:#636363; stroke:none;" d="M101 110L102 111L101 110z"/>
<path style="fill:#a0a0a0; stroke:none;" d="M192 111L193 112L192 111z"/>
<path style="fill:#d0d0d0; stroke:none;" d="M98 112L99 113L98 112z"/>
<path style="fill:#c8c8c8; stroke:none;" d="M224 112L225 113L224 112z"/>
<path style="fill:#090909; stroke:none;" d="M247 115C246.319 118.204 244.231 120.937 243 124C237.55 120.183 230.43 122.013 225 125C228.482 128.227 235.245 125.991 240 126C233.763 133.358 227.017 140.181 220.438 147.129C216.422 151.371 213.1 157.06 208 160L208 164C202.854 165.597 199.217 170.893 198 176C190.411 176.576 189.466 182.684 185.316 187.855C182.135 191.82 177.752 194.697 175 199C179.391 199 185.868 200.185 189.816 197.973C195.966 194.527 199.232 186.081 206 184C206.946 180.976 207.563 177.01 209.598 174.518C211.987 171.592 215.77 170.087 218.29 167.254C222.642 162.363 226.738 157.226 231.173 152.424C235.654 147.572 240.483 142.596 242 136C252.177 135.19 250 122.403 250 115L247 115z"/>
<path style="fill:#e6e6e6; stroke:none;" d="M193.333 116.667C193.278 116.722 193.222 117.778 193.667 117.333C193.722 117.278 193.778 116.222 193.333 116.667z"/>
<path style="fill:#a8a8a8; stroke:none;" d="M39 121L40 122L39 121z"/>
<path style="fill:#ffffff; stroke:none;" d="M133 136L133 157L164 157L164 123C157.669 123 149.003 121.46 143 123.6C137.845 125.436 134.758 130.042 129 130.812C113.217 132.921 95.9287 131 80 131L90 134C85.082 135.168 80.7323 134.018 75.8302 134.38C59.6306 135.577 43.2556 135 27 135C30.9712 130.227 36.9646 124.221 43.1736 122.474C54.6391 119.248 69.1439 122.691 81 122C79.5448 124.299 78.1085 126.521 77 129C80.7138 127.137 83.7322 124.544 87 122C83.3013 120.448 78.9828 121 75 121L53 121C48.8518 121 43.9367 120.309 40 121.854C35.6766 123.551 30.4948 127.414 27.1921 130.664C26.1354 131.704 24.4768 133.535 25.8904 134.987C27.4242 136.563 31.0415 135.996 33 136L53 136L133 136z"/>
<path style="fill:#888888; stroke:none;" d="M87 121L88 122L87 121z"/>
<path style="fill:#a6a6a6; stroke:none;" d="M192 121L193 122L192 121z"/>
<path style="fill:#8b8b8b; stroke:none;" d="M226 121L227 122L226 121z"/>
<path style="fill:#717171; stroke:none;" d="M38 122L39 123L38 122z"/>
<path style="fill:#fafafa; stroke:none;" d="M27 135C42.9535 135 59.0585 135.626 74.9853 134.721C80.1259 134.429 84.981 135.483 90 134C86.1644 131.379 80.5857 131.362 76 131L81 122C62.7796 122.415 38.027 116.33 27 135z"/>
<path style="fill:#c4c4c4; stroke:none;" d="M84 123L85 124L84 123z"/>
<path style="fill:#535353; stroke:none;" d="M35 124L36 125L35 124z"/>
<path style="fill:#626262; stroke:none;" d="M191 124L192 125L191 124z"/>
<path style="fill:#bcbcbc; stroke:none;" d="M34 125L35 126L34 125z"/>
<path style="fill:#b5b5b5; stroke:none;" d="M82 125L83 126L82 125z"/>
<path style="fill:#505050; stroke:none;" d="M222 125L223 126L222 125z"/>
<path style="fill:#080808; stroke:none;" d="M195 160L196 158C192.879 160.437 192.244 164.168 192 168L188 168C186.149 171.506 182.968 173.138 180.326 176.019C176.564 180.12 173.794 185.369 170.456 189.83C168.014 193.094 164.834 195.323 163 199C173.16 199 178.66 196.755 185.316 188.69C189.526 183.589 190.567 177.135 198 176C199.881 171.148 203.313 166.379 208 164L208 160C212.258 159.11 216.078 153.356 218.806 150C225.171 142.167 235.535 135.147 240 126C234.934 125.962 228.023 125.05 223.209 126.713C219.898 127.856 217.701 132.45 215.56 135C211.17 140.228 204.628 144.001 200.613 149.321C197.915 152.897 198.682 156.749 195 160z"/>
<path style="fill:#3e3e3e; stroke:none;" d="M32 126L33 127L32 126z"/>
<path style="fill:#bfbfbf; stroke:none;" d="M138 126L139 127L138 126z"/>
<path style="fill:#a4a4a4; stroke:none;" d="M221 126L222 127L221 126z"/>
<path style="fill:#6c6c6c; stroke:none;" d="M137 127L138 128L137 127z"/>
<path style="fill:#3f3f3f; stroke:none;" d="M189 127L190 128L189 127z"/>
<path style="fill:#717171; stroke:none;" d="M78 128L79 129L78 128z"/>
<path style="fill:#777777; stroke:none;" d="M135 128L136 129L135 128z"/>
<path style="fill:#c0c0c0; stroke:none;" d="M220 128L221 129L220 128z"/>
<path style="fill:#cacaca; stroke:none;" d="M188 129L189 130L188 129z"/>
<path style="fill:#565656; stroke:none;" d="M27 130L28 131L27 130z"/>
<path style="fill:#ededed; stroke:none;" d="M76 130C81.2165 132.189 88.3809 131 94 131L132 131C126.784 128.811 119.619 130 114 130L76 130z"/>
<path style="fill:#7b7b7b; stroke:none;" d="M187 130L188 131L187 130z"/>
<path style="fill:#404040; stroke:none;" d="M219 130L220 131L219 130z"/>
<path style="fill:#464646; stroke:none;" d="M186 131L187 132L186 131z"/>
<path style="fill:#0a0a0a; stroke:none;" d="M248 131C246.764 134.371 245.55 135.424 242 136C237.717 147.666 226.037 158.352 217.675 167.254C215.301 169.781 211.859 171.134 209.598 173.76C207.369 176.348 206.669 180.745 206 184C200.001 185.014 192.934 193.798 190 199C194.002 199 199.925 200.097 203.621 198.397C207.353 196.68 209.752 191.043 212.438 188.054C218.926 180.835 226.065 174.118 232.255 166.546C236.654 161.163 240.529 153.205 248 152C249.604 144.802 250 138.446 250 131L248 131z"/>
<path style="fill:#323232; stroke:none;" d="M185 132L186 133L185 132z"/>
<path style="fill:#747474; stroke:none;" d="M183 134L184 135L183 134z"/>
<path style="fill:#767676; stroke:none;" d="M26 136C29.6987 137.552 34.0172 137 38 137L59 137L133 137C129.301 135.448 124.983 136 121 136L100 136L26 136z"/>
<path style="fill:#3c3c3c; stroke:none;" d="M180 136L181 137L180 136z"/>
<path style="fill:#a0a0a0; stroke:none;" d="M177 138L178 139L177 138z"/>
<path style="fill:#cecece; stroke:none;" d="M176 139L177 140L176 139z"/>
<path style="fill:#797979; stroke:none;" d="M174 140L175 141L174 140z"/>
<path style="fill:#c4c4c4; stroke:none;" d="M172 141L173 142L172 141z"/>
<path style="fill:#d4d4d4; stroke:none;" d="M168 143L169 144L168 143z"/>
<path style="fill:#bdbdbd; stroke:none;" d="M207 143L208 144L207 143z"/>
<path style="fill:#6d6d6d; stroke:none;" d="M206 144L207 145L206 144z"/>
<path style="fill:#0b0b0b; stroke:none;" d="M248 148L248 152C240.839 152.564 236.768 159.511 232.89 164.89C228.596 170.845 222.758 177.367 217.614 182.546C212.502 187.692 207.298 191.802 205 199C208.905 199 214.301 199.936 217.829 197.972C222.381 195.439 224.044 189.739 227.612 186.209C231.356 182.504 234.358 181.742 235 176C238.602 174.911 239.117 172.935 241.544 170.294C243.189 168.503 245.61 167.669 247.076 165.701C250.736 160.793 250 153.732 250 148L248 148z"/>
<path style="fill:#1b1b1b; stroke:none;" d="M62 151L62 159C63.1614 156.23 63.1614 153.77 62 151z"/>
<path style="fill:#a8a8a8; stroke:none;" d="M68 151L69 152L68 151z"/>
<path style="fill:#3d3d3d; stroke:none;" d="M69 151L70 152L69 151z"/>
<path style="fill:#070707; stroke:none;" d="M176 163C175.516 165.595 174.392 165.968 172 167C171.718 173.94 162.819 180.765 158.22 185.575C156.032 187.863 154.715 190.374 152 192L152 196C149.703 196.674 149.226 196.965 148 199C152.188 199 157.763 199.96 161.714 198.411C170.029 195.152 174.595 184.053 179.714 177.455C182.459 173.916 186.593 172.411 188 168L192 168C192.468 164.181 193.504 160.944 196 158L195 160C198.598 157.849 199.246 155.072 199 151C190.653 153.852 184.002 159.677 176 163z"/>
<path style="fill:#c0c0c0; stroke:none;" d="M73 152L74 153L73 152z"/>
<path style="fill:#5a5a5a; stroke:none;" d="M74 152L75 153L74 152z"/>
<path style="fill:#3d3d3d; stroke:none;" d="M195 152L196 153L195 152z"/>
<path style="fill:#c5c5c5; stroke:none;" d="M82 153L83 154L82 153z"/>
<path style="fill:#7c7c7c; stroke:none;" d="M83 153L84 154L83 153z"/>
<path style="fill:#cecece; stroke:none;" d="M89 154L90 155L89 154z"/>
<path style="fill:#787878; stroke:none;" d="M90 154C91.2484 154.685 91.5484 154.749 93 155C91.7516 154.315 91.4516 154.251 90 154z"/>
<path style="fill:#373737; stroke:none;" d="M125 154L126 155L125 154z"/>
<path style="fill:#888888; stroke:none;" d="M126.667 154.333C126.222 154.778 127.278 154.722 127.333 154.667C127.778 154.222 126.722 154.278 126.667 154.333z"/>
<path style="fill:#a7a7a7; stroke:none;" d="M191 154L192 155L191 154z"/>
<path style="fill:#cfcfcf; stroke:none;" d="M99 155C100.248 155.685 100.548 155.749 102 156C100.752 155.315 100.452 155.251 99 155z"/>
<path style="fill:#6b6b6b; stroke:none;" d="M102 155C103.506 155.683 104.315 155.826 106 156C104.494 155.317 103.685 155.174 102 155z"/>
<path style="fill:#313131; stroke:none;" d="M106 155C107.248 155.685 107.548 155.749 109 156C107.752 155.315 107.452 155.251 106 155z"/>
<path style="fill:#121212; stroke:none;" d="M109 155C110.769 155.779 112.036 155.912 114 156C112.231 155.221 110.964 155.088 109 155z"/>
<path style="fill:#474747; stroke:none;" d="M114.667 155.333C114.222 155.778 115.278 155.722 115.333 155.667C115.778 155.222 114.722 155.278 114.667 155.333z"/>
<path style="fill:#717171; stroke:none;" d="M116.667 155.333C116.222 155.778 117.278 155.722 117.333 155.667C117.778 155.222 116.722 155.278 116.667 155.333z"/>
<path style="fill:#a2a2a2; stroke:none;" d="M118.667 155.333C118.222 155.778 119.278 155.722 119.333 155.667C119.778 155.222 118.722 155.278 118.667 155.333z"/>
<path style="fill:#929292; stroke:none;" d="M189 155L190 156L189 155z"/>
<path style="fill:#cfcfcf; stroke:none;" d="M133 157C141.367 160.511 154.924 158 164 158C155.633 154.489 142.076 157 133 157z"/>
<path style="fill:#050505; stroke:none;" d="M133 168L134 171C130.605 170.177 128.331 171.259 125 172C127.577 173.217 129.42 173.536 131 176C129.977 174.466 130.195 174.598 129 174C127.393 174.655 126.756 174.449 125 174C125.112 177.139 122.885 179.142 120 180L120 184C115.694 185.506 112.714 189.552 112 194C108.95 194.948 108.088 196.003 107 199C121.494 199 138.614 201.682 152 196L152 192C154.962 190.928 156.048 188.66 158.22 186.42C162.781 181.716 173.014 173.994 172 167C174.729 166.287 175.583 165.784 176 163C179.273 162.159 181.969 160.475 185 159C180.027 157.621 173.888 161.686 169 162.975C157.235 166.075 145.161 168 133 168z"/>
<path style="fill:#3f3f3f; stroke:none;" d="M64 159L65 160L64 159z"/>
<path style="fill:#d1d1d1; stroke:none;" d="M65 159L66 160L65 159z"/>
<path style="fill:#747474; stroke:none;" d="M70 160L71 161L70 160z"/>
<path style="fill:#e8e8e8; stroke:none;" d="M130 160C133.959 161.661 138.74 161 143 161L167 161C163.041 159.339 158.26 160 154 160L130 160z"/>
<path style="fill:#a1a1a1; stroke:none;" d="M176 160L177 161L176 160z"/>
<path style="fill:#0c0c0c; stroke:none;" d="M249 160C247.43 164.99 245.018 166.068 241.544 169.544C239.066 172.023 238.263 174.361 235 176C233.88 181.531 230.454 182.445 226.915 186.209C223.49 189.852 220.48 194.684 218 199L250 199L250 173C250 168.74 250.661 163.959 249 160z"/>
<path style="fill:#313131; stroke:none;" d="M74 161L75 162L74 161z"/>
<path style="fill:#787878; stroke:none;" d="M75 161L76 162L75 161z"/>
<path style="fill:#d2d2d2; stroke:none;" d="M173 161L174 162L173 161z"/>
<path style="fill:#3a3a3a; stroke:none;" d="M80 162L81 163L80 162z"/>
<path style="fill:#8a8a8a; stroke:none;" d="M81 162L82 163L81 162z"/>
<path style="fill:#c9c9c9; stroke:none;" d="M82 162L83 163L82 162z"/>
<path style="fill:#696969; stroke:none;" d="M171 162L172 163L171 162z"/>
<path style="fill:#5e5e5e; stroke:none;" d="M91 163L92 164L91 163z"/>
<path style="fill:#8c8c8c; stroke:none;" d="M92 163L93 164L92 163z"/>
<path style="fill:#d0d0d0; stroke:none;" d="M93 163L94 164L93 163z"/>
<path style="fill:#939393; stroke:none;" d="M166 163L167 164L166 163z"/>
<path style="fill:#c3c3c3; stroke:none;" d="M162 164L163 165L162 164z"/>
<path style="fill:#454545; stroke:none;" d="M163 164L164 165L163 164z"/>
<path style="fill:#767676; stroke:none;" d="M96 165L97 166L96 165z"/>
<path style="fill:#9a9a9a; stroke:none;" d="M156 165L157 166L156 165z"/>
<path style="fill:#363636; stroke:none;" d="M157 165L158 166L157 165z"/>
<path style="fill:#b8b8b8; stroke:none;" d="M150 166L151 167L150 166z"/>
<path style="fill:#707070; stroke:none;" d="M151 166L152 167L151 166z"/>
<path style="fill:#5d5d5d; stroke:none;" d="M98 167L99 168L98 167z"/>
<path style="fill:#b7b7b7; stroke:none;" d="M144 167L145 168L144 167z"/>
<path style="fill:#3f3f3f; stroke:none;" d="M145 167L146 168L145 167z"/>
<path style="fill:#5b5b5b; stroke:none;" d="M100 168L101 169L100 168z"/>
<path style="fill:#c4c4c4; stroke:none;" d="M128.667 168.333C128.222 168.778 129.278 168.722 129.333 168.667C129.778 168.222 128.722 168.278 128.667 168.333z"/>
<path style="fill:#838383; stroke:none;" d="M130 168C131.248 168.685 131.548 168.749 133 169C131.752 168.315 131.452 168.251 130 168z"/>
<path style="fill:#030303; stroke:none;" d="M101 171C97.4087 176.579 92.4913 181.329 89 187L87 186C84.3174 190.681 80.4363 194.172 78 199C86.1393 199 96.9585 200.902 104.791 198.683C107.494 197.917 109.49 195.267 112 194C113.21 189.824 116.237 186.169 120 184L120 180C123.266 178.983 124.79 177.46 125 174C128.102 175.861 127.317 176.683 130 174L130 176C131.235 172.725 127.499 173.041 125 173C126.223 171.805 126.42 171.684 128 171C123.255 169.009 117.97 170.608 113 171C114.248 171.685 114.548 171.749 116 172C112.872 172.446 111.396 172.072 109 170C106.272 170.569 103.788 171.027 101 171z"/>
</svg>
